<svg width="154" height="150" viewBox="0 0 154 150" fill="none" xmlns="http://www.w3.org/2000/svg">
<path d="M25.6269 149.159C25.026 148.454 25.1336 146.897 26.1729 141.259C27.7046 132.949 27.774 130.868 30.9848 126.937C34.9017 122.141 41.2888 119.676 47.1454 117.434C48.8472 116.783 50.6012 116.119 52.5153 116.342C53.2813 116.431 54.6835 116.956 54.6835 116.956C56.2815 117.866 57.1252 117.99 58.9 117.575C61.0978 117.061 61.1225 117.021 61.5192 113.414L61.9197 109.772L58.0751 105.954C55.9606 103.854 53.1255 100.489 51.775 98.4768L49.3196 94.8174C49.3196 94.8174 49.3082 97.5101 48.9423 98.7916C47.4304 104.075 45.2888 109.476 41.5719 113.597C39.7845 115.578 37.2866 116.942 34.7784 117.937C31.7094 119.155 28.3354 119.795 25.0214 119.795C21.7075 119.795 18.1978 119.439 15.2644 117.937C10.3875 115.441 6.11974 111.372 3.45342 106.677C1.74503 103.669 1.2012 100.038 1.2012 96.6C1.2012 93.1624 1.74503 89.5313 3.45342 86.523C6.11974 81.8279 10.3867 77.758 15.2644 75.263C18.2073 73.7577 21.7288 73.3623 25.0527 73.4047C28.6277 73.4504 32.0245 74.9532 35.5229 75.6714C37.4743 76.0721 40.2489 77.9224 41.3904 76.8109C42.5319 75.6993 42.5251 75.6349 40.8992 72.1953C37.7328 65.4967 38.3714 54.6998 42.2796 48.859L43.7726 46.6278L42.2782 44.8984C41.4563 43.9473 40.6098 42.6349 40.3969 41.9819L40.0099 40.7946C40.0099 40.7946 38.8766 41.6308 38.2749 41.9977C36.5901 43.0251 34.9155 44.1358 33.042 44.783C30.1913 45.7678 28.7249 46.3678 24.1169 46.3788C21.1318 46.3855 17.6848 46.0459 16.4569 45.6222C13.8842 44.7345 12.9596 42.912 14.3802 41.5287C15.1902 40.74 15.676 40.7165 17.8794 41.3594C21.4744 42.4083 26.6756 42.6918 30.5639 41.0716C35.5944 38.9754 40.0773 34.6914 42.1712 29.7688C43.8929 25.7213 43.8929 20.6733 42.1712 16.6258C40.0773 11.7032 35.6191 7.36201 30.5639 5.32301C26.4073 3.64647 21.2228 3.64522 17.0667 5.32301C12.0059 7.36603 7.20269 11.5915 5.45236 16.6466C3.51737 22.235 4.42953 29.7658 7.88681 34.1797C9.8334 36.6648 9.64639 38.6904 7.44751 38.9384C5.5897 39.1479 2.91485 34.8437 1.64022 32.1819C0.320077 29.4252 -0.0247864 26.2389 0.00135624 23.1973C0.0291627 19.9708 0.175258 17.2483 1.90348 13.6963C4.55957 8.23693 8.64613 4.793 13.4669 2.19514C16.5467 0.535419 20.2642 0.0419486 23.7841 0.00203232C27.0959 -0.0355203 30.5559 0.442436 33.5384 1.84485C37.709 3.80585 41.9807 7.13501 44.0924 10.6439L45.6085 13.1629L48.0934 11.4101C51.8464 8.76277 58.0354 7.12748 62.9218 7.49202C68.9447 7.94136 73.3155 9.8154 77.7397 13.8454C82.567 18.2426 84.8127 22.7676 85.2923 29.0635L85.6273 33.4616L88.7091 33.8914C94.537 34.7043 96.2363 35.2622 95.5001 37.7836C94.9542 39.6535 93.3392 39.0843 89.691 38.4493C83.1808 37.3164 76.6629 37.9023 72.0126 40.0383C65.4695 43.0438 65.2509 43.3353 65.7612 48.3778L66.1967 52.6814L69.746 55.2257C74.8426 58.8792 78.6866 60.0964 87.0416 60.7026C94.9329 61.2751 98.1007 62.2996 101.825 65.4837C103.071 66.5494 104.64 68.4687 105.311 69.7489C105.981 71.029 106.742 71.8468 107.002 71.5661C108.06 70.4224 108.844 66.841 108.837 63.1875C108.826 56.5782 106.702 50.907 102.143 45.3035C100.264 42.9934 99.3467 41.9259 100.584 40.6268C101.989 39.1512 103.079 40.032 105.715 42.8162C108.605 45.8693 110.755 49.8001 112.182 54.6387C112.749 56.5627 113.587 59.9088 113.661 59.9941C113.736 60.0796 115.909 58.5739 117.149 58.1065C119.982 57.0394 122.984 56.1904 126.018 56.0748C129.147 55.9556 132.473 56.1622 135.303 57.4675C140.044 59.6538 144.365 63.2959 147.01 67.7065C148.882 70.8286 149.377 74.6807 149.419 78.2958C149.457 81.6141 148.87 85.0525 147.432 88.0615C146.584 89.8362 143.663 92.6452 143.663 92.6452C143.663 92.6452 146.428 94.4165 147.447 95.6535C148.941 97.467 151.87 101.036 150.664 101.885C149.197 102.916 148.225 103.289 147.014 101.831C143.528 97.6304 141.945 96.1568 138.579 94.511C135.955 93.2279 132.887 92.783 129.951 92.783C127.015 92.783 123.73 92.8742 121.323 94.511C115.722 98.3191 110.845 104.831 110.531 111.476C110.376 114.758 111.13 118.429 115.049 120.296C117.012 121.231 119.466 123.107 121.126 124.941C122.657 126.632 123.415 128.278 125.1 129.338C126.394 130.152 126.925 130.659 129.518 130.659C139.974 130.659 148.38 123.183 149.514 112.876C149.86 109.727 149.769 108.472 150.765 108.309C153.734 107.822 154.248 109.416 153.909 113.319C153.426 118.882 151.094 123.712 147.394 127.382C143.316 131.429 137.138 132.886 131.609 134.664C130.102 135.149 126.936 135.139 126.937 135.566C126.937 135.935 127.344 138.484 127.84 141.229C129.076 148.057 129.022 149.285 127.472 149.764C125.403 150.404 124.692 148.999 123.348 141.616C122.651 137.791 121.695 133.761 121.223 132.661C119.868 129.504 117.325 126.619 114.45 124.978C112.075 123.623 103.471 120.676 101.889 120.676C101.547 120.676 100.933 123.385 100.525 126.695C99.408 135.76 95.7096 147.637 93.4297 149.48C92.9845 149.84 92.0376 149.954 91.3255 149.734C89.7541 149.248 89.8727 148.364 92.4774 141.145C94.1452 136.522 95.6236 130.313 96.397 124.682C96.6663 122.722 96.5338 122.468 94.9622 121.934C93.3225 121.378 93.1931 121.457 92.5222 123.437C90.0874 130.621 79.9647 134.295 70.3033 131.501C66.5398 130.412 62.1609 126.518 61.5235 123.692C61.0984 121.807 59.9341 121.35 58.2301 122.4C57.5191 122.838 57.4792 123.536 58.0036 126.353C58.7285 130.247 58.5575 131.053 56.8981 131.566C54.9214 132.177 54.1171 130.83 53.3609 125.643C52.9318 122.699 52.3552 120.679 51.9454 120.683C50.9687 120.695 43.9679 122.221 40.5833 124.26C37.6598 126.022 35.1062 128.548 33.3653 131.435C31.5923 134.375 31.2172 137.772 30.3941 141.245C29.7468 143.976 28.8964 149.301 28.4844 149.556C27.352 150.256 26.4558 150.132 25.6269 149.159ZM84.035 126.59C87.3144 124.961 88.5908 122.809 88.5044 119.053C88.4652 117.353 88.259 115.19 88.0461 114.246L87.659 112.53L84.834 113.782C80.7724 115.581 73.4618 115.571 69.4027 113.759C67.776 113.034 66.3459 112.536 66.2247 112.654C66.1034 112.772 65.8377 114.972 65.6341 117.543C65.2662 122.189 65.2758 122.23 67.2162 124.382C70.7345 128.284 78.5571 129.312 84.035 126.59ZM99.2029 117.055C100.782 115.918 101.221 115.855 103.319 116.468C104.611 116.844 105.808 117.153 105.981 117.153C106.153 117.153 106.151 115.426 105.978 113.317C105.596 108.677 106.973 103.139 109.457 99.3243L111.152 96.7213L109.48 95.1609C107.083 92.9254 105.342 93.5406 102.924 97.4775C101.857 99.2142 98.9595 102.731 96.4843 105.294L91.9839 109.952L92.4244 113.354C92.8693 116.789 93.3579 117.287 97.2614 118.283C97.3578 118.307 98.2308 117.755 99.2029 117.055ZM31.9564 114.362C34.1717 113.685 37.9691 112.099 39.9016 109.762C42.9032 106.133 44.4805 101.159 44.4394 96.4994C44.4235 94.6472 44.2699 92.7941 42.5432 91.2583C40.5722 89.5053 38.8914 86.3165 38.8914 84.3299C38.8914 82.754 35.058 79.8294 31.4876 78.6356C27.9172 77.4418 22.3366 77.0704 18.2728 78.7257C13.225 80.7819 8.36165 84.9627 6.66554 90.0285C4.61548 96.1514 5.19213 104.33 9.72981 109.117C18.3515 118.213 26.2516 115.802 31.9564 114.362ZM23.9661 110.892C22.6001 109.156 23.6305 106.991 25.0633 106.816C27.2027 106.556 28.1238 108.534 27.0245 110.436C26.5728 111.217 24.5263 111.604 23.9661 110.892ZM23.642 101.52C23.642 98.9664 23.5178 96.8152 23.5178 91.6913C23.5178 83.608 23.3427 82.421 24.1987 82.1012C24.7413 81.8985 25.6233 81.8484 26.1587 82.1773C26.9878 82.6866 27.132 84.3104 27.132 92.2599C27.132 92.2599 27.1817 98.1531 27.132 101.591C27.1206 102.356 25.4072 102.379 25.4072 102.379C24.4822 102.492 23.7137 102.157 23.642 101.52ZM83.8182 109.279C88.3181 107.25 92.7092 103.533 96.7032 98.3713C101.42 92.276 102.276 89.6074 102.407 80.5852C102.52 72.8819 102.079 71.3756 98.9696 68.8338C95.7264 66.1824 93.2061 65.4355 85.7539 64.9172C77.3399 64.3321 73.4045 63.1467 68.2878 59.6565L64.9561 57.3839L64.2454 58.9349C62.766 62.163 60.4015 64.8561 57.0166 67.1682C51.8977 70.6647 51.3674 72.0913 51.6527 81.5995C51.8725 88.9234 51.9907 89.5491 53.8472 93.2212C56.1513 97.7787 62.8145 104.995 67.3149 107.807C73.211 111.492 77.9691 111.916 83.8182 109.279ZM71.9183 101.687C71.9343 99.514 73.8876 99.5361 76.8832 99.5361C79.8787 99.5361 81.4383 99.5349 81.5792 101.479C81.7153 103.357 80.8854 103.647 76.8832 103.647C74.1042 103.647 71.9007 104.2 71.9183 101.687ZM73.9782 94.2182C72.9077 93.8002 72.6368 93.2951 72.7722 92.0533C73.0115 89.8585 73.0528 91.302 76.8832 91.302C80.7108 91.302 80.5453 89.8595 80.9938 92.0487C81.2542 93.3205 80.8638 93.782 79.5976 94.2508C77.6807 94.9605 75.8519 94.9499 73.9782 94.2182ZM61.9277 89.4359C60.6823 88.2231 61.1304 86.778 63.1351 85.542L65.0662 84.3514L63.4483 83.6335C61.5484 82.7906 60.8036 81.0416 61.8311 79.836C62.9232 78.5546 64.0171 78.7787 67.9094 81.0811C72.8208 83.9864 72.7697 85.257 67.6288 88.0565C63.4046 90.3569 62.9792 90.4598 61.9277 89.4359ZM86.0796 88.0422C81.0077 85.2429 80.9671 83.9736 85.8569 81.0811C89.7492 78.7787 90.8431 78.5546 91.9352 79.836C92.9627 81.0416 92.2179 82.7906 90.3181 83.6335L88.7001 84.3514L90.6312 85.542C92.6359 86.778 93.084 88.2231 91.8386 89.4359C90.7794 90.4673 90.2346 90.3355 86.0796 88.0422ZM121.444 89.7613C125.976 87.9458 133.364 87.8569 137.935 89.5629L141.107 90.7469C141.107 90.7469 141.937 89.5973 142.462 89.1225C147.635 84.4414 147.136 77.0508 145.213 71.3651C143.499 66.2981 138.781 61.7451 133.584 60.0555C127.801 58.175 120.456 59.1245 115.473 62.5448C114.216 63.4071 113.644 64.3873 113.331 66.521C113.107 68.0462 112.378 70.5534 111.71 72.0924L110.497 74.8906L112.114 76.3493C115.769 79.6478 116.307 84.9329 113.403 89.0134L111.974 91.0214L113.209 92.3229L114.444 93.6244L116.253 92.3702C117.248 91.6803 119.584 90.5063 121.444 89.7613ZM123.674 82.455C123.526 80.7985 123.236 77.5672 124.435 75.5793C124.963 74.7034 125.857 74.3678 126.989 73.8177C130.603 72.0609 129.799 68.0843 125.917 68.5177C124.583 68.6666 124.077 69.145 123.54 70.7622C122.97 72.4791 122.547 73.1238 121.101 73.1238C119.546 73.1238 119.389 71.9302 119.214 70.6723C119.038 69.4145 119.411 68.1055 120.918 66.4332C125.177 61.7098 132.436 63.6967 133.83 69.9674C134.39 72.4868 132.87 75.8209 130.583 77.0882C129.085 77.918 128.752 78.4816 128.749 80.1871C128.742 83.4749 128.083 84.2377 126.458 84.41C123.379 84.7363 123.674 82.455 123.674 82.455ZM47.134 84.1822C46.9256 81.551 46.6372 79.2835 46.4932 79.1432C45.8912 78.5571 43.7017 80.3016 43.356 81.6428C42.8642 83.5507 43.3989 85.4792 44.9525 87.4026C47.1045 90.0666 47.5481 89.4116 47.134 84.1822ZM109.092 87.1594C110.922 85.0418 111.187 81.7048 109.656 80.0572C107.827 78.09 107.035 78.7194 107.035 82.1396C107.035 83.8756 106.866 86.1217 106.658 87.131C106.175 89.4869 107.072 89.4973 109.092 87.1594ZM51.6767 65.7708C52.8491 64.8019 54.8213 63.25 56.0593 62.3221C57.4391 61.2879 58.9911 59.2428 60.07 57.0371C61.6789 53.7479 61.7957 53.0865 61.4319 49.3286C61.003 44.8997 60.6266 44.36 57.9573 44.3462C52.8378 44.3198 47.2087 48.0992 45.0332 53.0237C42.4592 58.8503 42.719 66.7154 45.64 71.3926L46.889 73.3925L48.217 70.4625C48.9474 68.851 50.5042 66.7397 51.6767 65.7708ZM57.606 40.4693C62.3739 40.422 62.9435 40.2833 65.3582 38.5799C68.0574 36.6759 73.3888 34.4884 76.5661 33.9811C81.6218 33.1741 81.2975 33.5181 80.9522 29.3292C80.363 22.1822 76.1626 16.4718 69.2169 13.3754C63.0316 10.6179 54.4865 11.73 49.1816 15.9828C47.81 17.0824 47.7099 17.5485 47.674 22.999C47.6375 28.5386 47.5186 29.0679 45.3468 33.3464C42.8829 38.2009 42.8856 38.2891 45.6181 42.0896L46.7465 43.6589L49.6032 42.0896C52.0489 40.7461 53.2003 40.513 57.606 40.4693ZM59.8246 35.7516C59.8155 35.4263 59.8668 31.3137 59.8668 26.401C59.8668 16.9914 59.7312 15.7883 62.2305 16.2569C63.2219 16.4429 63.3148 17.2896 63.3148 26.1414C63.3148 26.1414 63.2746 33.4882 63.341 36.5372C63.3455 36.7288 61.837 36.8386 61.837 36.8386C60.419 36.8739 59.8633 37.0702 59.8246 35.7516ZM59.9575 148.789C58.628 146.37 56.4394 139.411 56.7557 138.609C57.1972 137.488 58.7048 137.013 59.8448 137.634C61.299 138.426 64.3177 147.586 63.5719 148.943C62.7642 150.413 60.8039 150.329 59.9575 148.789ZM119.144 112.805C118.441 111.354 119.199 109.812 120.612 109.812C121.477 109.812 122.413 110.01 122.413 111.574C122.413 112.913 122.111 113.378 121.154 113.511C120.462 113.607 119.42 113.374 119.144 112.805ZM128.19 112.805C127.188 111.303 128.643 109.863 129.658 109.812C130.589 109.766 131.588 109.956 131.588 111.52C131.588 112.859 131.156 113.378 130.2 113.511C129.507 113.607 128.542 113.333 128.19 112.805ZM137.236 112.805C136.827 112.043 136.709 110.1 138.703 109.812C139.079 109.758 140.504 110.01 140.504 111.574C140.504 112.913 140.202 113.378 139.245 113.511C138.553 113.607 137.649 113.29 137.236 112.805ZM123.107 45.5651C119.108 44.3956 115.407 42.0516 112.41 39.222C110.495 37.4148 109.018 35.1135 108.039 32.6982C106.897 29.8796 106.472 26.7742 106.427 23.7443C106.385 20.8468 106.454 17.7663 107.716 15.1418C109.981 10.4301 113.937 6.35822 118.415 3.52076C121.215 1.74614 124.621 0.801957 127.949 0.507342C131.44 0.198259 135.143 0.535618 138.373 1.86024C142.693 3.63143 146.737 6.57782 149.443 10.3046C151.83 13.5923 153.049 17.7412 153.4 21.7533C153.705 25.2376 153.181 28.9154 151.741 32.1191C150.236 35.469 147.697 38.4581 144.743 40.7152C141.38 43.2845 137.279 45.1077 133.087 45.9212C129.822 46.5547 126.295 46.4976 123.107 45.5651ZM135.477 42.2593C138.628 41.2826 141.845 39.8342 144.092 37.4726C147.395 34.0011 150.065 29.3665 150.333 24.6412C150.622 19.5395 148.616 14.0313 145.204 10.1492C141.936 6.43067 136.889 3.66865 131.879 3.27793C126.422 2.85242 120.453 4.91175 116.329 8.4165C112.527 11.6481 110.064 16.7181 109.569 21.6089C109.066 26.5831 110.443 32.1507 113.621 36.0753C116.716 39.8959 121.892 42.3453 126.766 43.0925C129.396 43.4957 132.697 43.1212 135.477 42.2593ZM119.328 24.1124C118.685 22.4824 119.371 21.142 120.848 21.142C122.508 21.142 123.679 22.6069 123.131 23.9983C122.661 25.1894 119.786 25.2757 119.328 24.1124ZM128.373 24.1124C127.731 22.4824 128.417 21.142 129.893 21.142C131.554 21.142 132.725 22.6069 132.176 23.9983C131.707 25.1894 128.832 25.2757 128.373 24.1124ZM137.419 24.1124C136.777 22.4824 137.463 21.142 138.939 21.142C140.6 21.142 141.77 22.6069 141.222 23.9983C140.753 25.1894 137.877 25.2757 137.419 24.1124ZM23.353 35.1064C22.0655 34.6005 22.1379 32.309 23.5377 31.8764C25.8377 31.1655 26.625 32.5943 26.4305 33.8521C26.2299 35.1488 24.6276 35.6072 23.353 35.1064ZM22.0273 27.3464C21.2853 25.9962 21.2138 21.4608 21.9177 20.3805C22.1905 19.9617 23.3397 19.169 24.4714 18.6188C28.0856 16.862 27.2814 12.8854 23.3995 13.3188C22.0659 13.4678 21.5593 13.9461 21.0225 15.5633C20.4527 17.2802 20.0555 17.6186 18.6103 17.6186C17.055 17.6186 16.8618 17.402 16.6967 15.4735C16.5499 13.7604 16.8934 12.9066 18.4011 11.2343C22.6601 6.51092 29.9188 8.4978 31.3126 14.7685C31.8726 17.2879 30.3522 20.6221 28.0655 21.8893C26.5681 22.7191 26.2345 23.2828 26.2313 24.9883C26.2245 28.2761 23.4071 29.8568 22.0273 27.3464Z" fill="#FF7E70"/>
</svg>
