<svg width="40" height="52" viewBox="0 0 40 52" fill="none" xmlns="http://www.w3.org/2000/svg">
<path d="M2.92689 51.685C1.88825 51.2249 0.922064 50.2925 0.467668 49.3119L0.0656023 48.4442L0.0205816 28.0105C-0.0291836 5.43857 -0.0796136 6.56696 1.04275 5.1434C1.34524 4.75973 2.01269 4.21472 2.52596 3.93228C3.40444 3.44887 3.58115 3.41531 5.53775 3.36034L7.61632 3.3019V2.06989C7.61632 0.982536 7.66525 0.790162 8.0328 0.431561C8.66178 -0.18207 9.65322 -0.135621 10.2312 0.53455C10.6113 0.975147 10.6705 1.19847 10.6705 2.1899V3.33594H12.6822H14.6938L14.7932 2.05305C14.8795 0.938441 14.9507 0.721295 15.3362 0.3977C15.9309 -0.10162 16.7902 -0.0918381 17.4016 0.421227C17.8261 0.777456 17.88 0.943557 17.9386 2.07657L18.0038 3.33596H20.1062H22.2087V2.08692C22.2087 0.981503 22.2566 0.791171 22.6251 0.431576C23.1797 -0.1094 24.0602 -0.113799 24.6977 0.421251C25.1222 0.77748 25.1761 0.943581 25.2348 2.0766L25.3 3.33598H27.299H29.2981L29.3618 2.10495C29.4409 0.576903 29.8488 0.0252931 30.8996 0.0252931C31.9308 0.0252931 32.3894 0.579242 32.3894 1.82511C32.3894 3.3674 32.3506 3.33598 34.2545 3.33598C37.01 3.33598 38.3933 4.00507 39.4364 5.84238L39.9401 6.72945L39.9851 27.3288C40.0242 45.2145 39.9967 48.0404 39.7763 48.78C39.4475 49.8834 38.3516 51.1029 37.2317 51.6116L36.3768 52L20.0029 51.9981C4.34642 51.9963 3.59809 51.9823 2.92689 51.685ZM36.3317 48.5406L36.8858 48.0576V31.9457V15.8339H20.0028H3.11981V31.9457V48.0576L3.67395 48.5406L4.22808 49.0236H20.0028H35.7775L36.3317 48.5406ZM17.3289 43.0623C14.8985 42.4411 12.9835 41.2892 11.5107 39.5627C8.05336 35.5097 7.94851 29.9869 11.2481 25.7326C12.7507 23.7952 15.3698 22.2526 17.9759 21.7701C23.4368 20.7589 28.8712 23.8795 30.638 29.0411C31.0521 30.2509 31.1028 30.6384 31.0976 32.5529C31.0925 34.4417 31.0376 34.8533 30.6496 35.919C28.6583 41.3876 22.8863 44.483 17.3289 43.0623ZM21.9471 40.1623C26.3058 39.0547 28.9935 34.7156 27.8873 30.5723C26.8382 26.6428 22.7968 24.0258 18.7777 24.6733C13.396 25.5404 10.3922 31.1099 12.7246 35.8964C14.3432 39.2178 18.3572 41.0745 21.9471 40.1623ZM18.0515 35.8058C17.7715 35.6382 17.0271 34.9667 16.3972 34.3135C15.4258 33.3064 15.2518 33.0366 15.2518 32.537C15.2518 32.1068 15.3855 31.8177 15.7478 31.4642C16.4902 30.7399 17.1124 30.8068 18.1113 31.7184L18.9202 32.4565L20.5963 30.8152C21.5182 29.9124 22.4856 29.0876 22.7463 28.9823C23.7606 28.5724 24.7538 29.2663 24.7538 30.3848C24.7538 31.0236 24.6462 31.1562 22.1602 33.5816C19.3388 36.334 19.126 36.4492 18.0515 35.8058ZM36.9397 10.0262L36.8858 7.28087L36.3249 6.79236C35.7753 6.31363 35.731 6.30478 34.1191 6.3511L32.4742 6.39834L32.3893 7.69628C32.3168 8.80532 32.2462 9.04022 31.9039 9.31024C31.3465 9.74996 30.4782 9.71532 29.9002 9.2303C29.4757 8.87408 29.4218 8.70797 29.3632 7.57496L29.298 6.31557H27.299H25.2999L25.2347 7.57496C25.1761 8.70797 25.1222 8.87408 24.6977 9.2303C24.1197 9.71532 23.2514 9.74996 22.694 9.31024C22.3517 9.04022 22.2811 8.80532 22.2086 7.69628L22.1238 6.39834L20.064 6.35204L18.0043 6.30574L17.9388 7.57008C17.8799 8.70839 17.8263 8.87388 17.4015 9.23038C16.7843 9.74828 15.9311 9.75335 15.3226 9.2427C14.9186 8.90366 14.8557 8.71127 14.7818 7.58736L14.6981 6.31562H12.6843H10.6705V7.46167C10.6705 8.4531 10.6112 8.67642 10.2312 9.11702C9.65317 9.78719 8.66173 9.83364 8.03275 9.22001C7.66415 8.86041 7.61627 8.67009 7.61627 7.56466V6.31562L6.04674 6.31813C3.30852 6.32251 3.0356 6.68595 3.03521 10.3299L3.03495 12.7715H20.0142H36.9935L36.9397 10.0262Z" fill="#FF7E70"/>
</svg>
