<svg width="46" height="51" viewBox="0 0 46 51" fill="none" xmlns="http://www.w3.org/2000/svg">
<path d="M24.1207 50.8893C23.9559 50.8205 23.7223 50.6756 23.6016 50.5671C23.4809 50.4586 22.1015 48.4558 20.5363 46.1164C18.971 43.777 17.6472 41.9097 17.5945 41.9668C17.5418 42.024 16.2392 43.9503 14.6999 46.2476C12.7761 49.1185 11.7793 50.5004 11.5117 50.6674C11.2118 50.8545 10.9742 50.8995 10.4789 50.8631C9.93039 50.8228 9.76995 50.7507 9.39083 50.3741C8.97361 49.9597 8.94612 49.8861 8.94612 49.1838V48.4353L11.6226 44.4725L14.2991 40.5096L8.47935 40.4496L2.65966 40.3895L1.97279 40.0545C1.19461 39.6749 0.626723 39.0931 0.254562 38.2941C0.00309295 37.7543 0 37.6412 0 28.9814C0 20.2655 0.00150784 20.2119 0.259821 19.6568C0.591193 18.9448 1.29586 18.2448 2.06029 17.8684L2.65966 17.5732H17.59C29.7176 17.5732 32.6058 17.6033 32.9754 17.7332C33.7504 18.0056 34.5767 18.7501 34.9562 19.5178C35.2816 20.176 35.3032 20.3178 35.342 22.0464C35.3646 23.0536 35.4092 23.8777 35.4412 23.8777C35.4732 23.8777 37.3767 23.2563 39.6713 22.4967C42.0423 21.7119 44.0401 21.1157 44.2992 21.1157C44.8661 21.1157 45.4745 21.5107 45.7761 22.0746C45.986 22.4669 46 22.8963 46 28.9533C46 36.0275 46.0109 35.913 45.2818 36.5224C44.6198 37.0757 44.2326 37.0038 39.5926 35.466C37.3008 34.7065 35.416 34.085 35.4042 34.085C35.3923 34.085 35.3633 34.9361 35.3398 35.9764C35.2996 37.7505 35.277 37.9056 34.9743 38.479C34.5973 39.1929 33.9643 39.7814 33.1914 40.1367C32.6597 40.381 32.4456 40.3907 26.8109 40.4239L20.9805 40.4583L23.7281 44.5527C26.3559 48.4685 26.4757 48.6721 26.4757 49.2228C26.4757 50.4039 25.1711 51.3271 24.1207 50.8893ZM31.8261 29.0114L31.8572 21.1157H17.6513H3.44547V28.9614C3.44547 33.2764 3.48196 36.8432 3.52656 36.8875C3.57116 36.9318 9.94981 36.9543 17.7013 36.9376L31.795 36.9071L31.8261 29.0114ZM7.97897 27.8573C7.35892 27.4769 7.15582 27.1598 7.10152 26.4877C7.05996 25.9733 7.10252 25.7828 7.33592 25.4388C7.92227 24.5747 7.70511 24.5986 14.9645 24.5984C22.0842 24.5982 21.969 24.5874 22.5825 25.3116C22.9995 25.8039 23.0372 26.7061 22.6656 27.3032C22.1726 28.0956 22.3194 28.0808 14.9725 28.0803C8.72841 28.0799 8.3205 28.0668 7.97897 27.8573ZM42.4941 28.9814C42.4941 26.9669 42.4533 25.3188 42.4034 25.3188C42.3536 25.3188 40.747 25.8372 38.8333 26.4708L35.3539 27.6229L35.3878 29.0108L35.4218 30.3987L38.7463 31.5098C40.5749 32.1208 42.1661 32.626 42.2825 32.6324C42.4796 32.6432 42.4941 32.3939 42.4941 28.9814ZM7.49418 13.9103C4.94399 13.3978 2.83493 11.5517 2.08124 9.17219C1.69764 7.96112 1.70236 5.89559 2.09129 4.77103C3.0121 2.10862 5.50195 0.216058 8.3461 0.0166827C12.3408 -0.263345 15.8817 3.01975 15.8954 7.01647C15.8979 7.73447 15.5335 9.23328 15.1795 9.96104C15.0425 10.2427 14.9304 10.4901 14.9304 10.5107C14.9304 10.5313 16.1544 10.5482 17.6505 10.5482C19.1465 10.5482 20.3706 10.5277 20.3706 10.5027C20.3706 10.4776 20.2327 10.158 20.0642 9.79233C19.7075 9.01847 19.4076 7.71823 19.4076 6.94562C19.4076 4.51535 21.0487 1.88242 23.2431 0.79192C27.1669 -1.15794 31.672 0.62247 33.2135 4.73218C33.4387 5.33255 33.4807 5.68998 33.4807 7.00566C33.4807 8.32134 33.4387 8.67877 33.2135 9.27914C32.4252 11.3808 30.9074 12.8893 28.8187 13.647L27.9264 13.9706L17.9527 13.9892C12.4671 13.9994 7.76082 13.9639 7.49418 13.9103ZM10.2409 10.2157C10.95 9.90411 11.741 9.11851 12.0644 8.40456C12.4309 7.59539 12.4177 6.35865 12.0342 5.57389C11.3921 4.25995 10.2457 3.52966 8.82523 3.52966C7.43485 3.52966 6.28835 4.21638 5.64635 5.43373C5.37528 5.94772 5.32399 6.19781 5.32399 7.00566C5.32399 7.8135 5.37528 8.06359 5.64635 8.57758C6.10046 9.43866 6.93256 10.1221 7.91775 10.4432C8.40284 10.6013 9.63882 10.4803 10.2409 10.2157ZM28.1067 10.1168C30.1615 9.006 30.6669 6.41267 29.1602 4.71231C26.9874 2.26046 23.0055 3.76315 23.0159 7.031C23.0173 7.49224 23.0868 8.02648 23.1703 8.2182C24.0513 10.2427 26.2849 11.1018 28.1067 10.1168Z" fill="#FF7E70"/>
</svg>
