<svg width="37" height="37" viewBox="0 0 37 37" fill="none" xmlns="http://www.w3.org/2000/svg">
<path d="M32.5558 34.7029L29.6724 32.3905L21.1606 32.3488L12.6488 32.307L11.7385 31.812C10.0862 30.9137 9.38947 29.7103 9.2849 27.5746C9.21852 26.219 9.22827 26.1623 9.58967 25.7999C10.0389 25.3494 10.6687 25.31 11.1518 25.7023C11.4512 25.9454 11.5022 26.1387 11.5717 27.2942C11.6563 28.7012 11.8274 29.0877 12.6321 29.6903C13.0232 29.9832 13.2006 29.9898 21.7352 30.0285L30.4395 30.068L32.5238 31.7259L34.6081 33.3838L34.6493 23.5734C34.672 18.1777 34.6532 13.5531 34.6075 13.2965C34.4402 12.3568 33.3831 11.5175 32.3669 11.5175C31.343 11.5175 30.8528 10.2721 31.587 9.53585C31.9323 9.18953 32.0271 9.16788 32.8296 9.25199C33.8414 9.35805 35.2271 10.035 35.7793 10.6931C35.9783 10.9302 36.3162 11.4572 36.5303 11.8642L36.9196 12.6041L36.9598 24.4507L37 36.2974L36.6137 36.6564C35.9043 37.3157 35.6777 37.2066 32.5558 34.7029ZM0.386148 28.5436L0 28.1847L0.0399962 15.7584L0.0799925 3.33211L0.469282 2.59218C1.04597 1.49604 1.48129 1.04479 2.49243 0.494995L3.40278 0H15.0325H26.6623L27.5727 0.494995C28.5838 1.04479 29.0191 1.49604 29.5958 2.59218L29.9851 3.33211V11.5175V19.7029L29.4915 20.6158C28.9432 21.6298 28.4933 22.0664 27.4002 22.6447L26.6623 23.035L17.5791 23.0764L8.49593 23.1178L5.02576 26.0101C1.27712 29.1345 1.11644 29.2223 0.386148 28.5436ZM16.989 20.7564C26.1166 20.7177 26.2871 20.7118 26.679 20.4183C26.8984 20.2541 27.2119 19.9396 27.3757 19.7196C27.6679 19.3271 27.6736 19.1715 27.6736 11.5175C27.6736 3.86356 27.6679 3.70796 27.3757 3.31547C27.2119 3.09543 26.8983 2.78097 26.6789 2.61669C26.284 2.32099 26.167 2.31799 15.0325 2.31799C3.8981 2.31799 3.78114 2.32128 3.38619 2.61669C3.16676 2.78097 2.85319 3.0954 2.68937 3.3154C2.39561 3.7099 2.39097 3.86429 2.35268 14.5006L2.31385 25.2858L5.0059 23.0407L7.69796 20.7957L16.989 20.7564ZM7.29689 13.4799C7.07336 13.2558 6.94228 12.9588 6.94228 12.6765C6.94228 12.3942 7.07336 12.0973 7.29689 11.8731L7.6515 11.5175H12.721H17.7906L18.1452 11.8731C18.3687 12.0973 18.4998 12.3942 18.4998 12.6765C18.4998 12.9588 18.3687 13.2558 18.1452 13.4799L17.7906 13.8355H12.721H7.6515L7.29689 13.4799ZM7.29689 8.84393C7.07336 8.61977 6.94228 8.3228 6.94228 8.04053C6.94228 7.75826 7.07336 7.4613 7.29689 7.23714L7.6515 6.88154H15.0325H22.4136L22.7682 7.23714C22.9917 7.4613 23.1228 7.75826 23.1228 8.04053C23.1228 8.3228 22.9917 8.61977 22.7682 8.84393L22.4136 9.19952H15.0325H7.6515L7.29689 8.84393Z" fill="#FF7E70"/>
</svg>
