<svg width="194" height="160" viewBox="0 0 194 160" fill="none" xmlns="http://www.w3.org/2000/svg">
<path d="M9.55253 159.648C7.98655 158.86 7.75355 157.752 7.75304 151.085C7.75268 146.415 7.85509 144.747 8.19176 143.941C9.07193 141.832 12.063 141.548 13.3529 143.451C13.8176 144.136 13.918 145.015 14.0033 149.142L14.1041 154.023H17.9182C20.4847 154.023 21.85 153.905 22.0923 153.662C22.3595 153.395 22.4523 150.388 22.4523 141.99V130.678L23.2432 129.886C24.0958 129.032 25.8519 128.805 26.9688 129.403C28.3887 130.164 28.4522 130.735 28.4522 142.745V154.023H48.0841C63.4658 154.023 67.7662 153.942 67.9481 153.647C68.0758 153.441 68.1994 149.014 68.2227 143.811C68.2853 129.857 68.2226 130.807 69.1423 129.886C70.0031 129.024 71.7534 128.806 72.8964 129.418C74.251 130.144 74.3512 131.074 74.3512 142.909V154.04L78.4762 153.956L82.6011 153.873L82.589 139.005L82.5769 124.138L81.8167 121.687C80.8032 118.419 79.4345 116.167 76.9012 113.602C74.6665 111.338 71.9904 109.665 69.2478 108.817L67.5943 108.305L64.1517 110.773C57.7557 115.356 54.3081 116.619 48.2518 116.597C42.1702 116.575 38.6114 115.288 32.6842 110.968L31.0664 109.789L31.2686 110.657C31.3797 111.133 31.9565 112.524 32.5503 113.747C34.6472 118.065 39.1125 121.618 44.0959 122.933C46.6987 123.62 51.1755 123.44 53.9517 122.535C57.7356 121.302 61.6684 118.073 63.5648 114.641C65.0933 111.876 66.2421 110.773 67.5945 110.773C69.1185 110.773 70.4513 112.097 70.4513 113.612C70.4513 115.704 67.7477 120.107 64.717 122.951C61.6627 125.817 58.8145 127.433 54.6439 128.666C52.41 129.327 51.3991 129.45 48.1018 129.461C44.6654 129.473 43.9072 129.379 41.7233 128.67C37.7557 127.38 34.6232 125.583 31.7895 122.97C29.1373 120.524 26.1405 115.426 25.1487 111.674C24.9522 110.93 24.7353 110.23 24.6667 110.117C24.4621 109.781 22.1728 111.222 20.3291 112.847C17.5552 115.291 15.2007 119.335 14.3673 123.087C14.2022 123.83 14.0638 126.415 14.0598 128.831C14.0513 133.945 13.9365 134.71 13.0022 135.883C12.4195 136.615 12.0914 136.753 10.9378 136.753C9.83878 136.753 9.40087 136.587 8.73438 135.92C7.93491 135.12 7.89852 134.95 7.7981 131.562C7.74063 129.623 7.84013 126.579 8.01919 124.797C8.91134 115.922 13.7223 108.819 21.8414 104.388L22.8086 103.86L20.6055 102.175C17.6192 99.8894 16.6717 98.9787 14.6263 96.4272C10.395 91.1493 8.22801 85.3657 7.84251 78.3217L7.66917 75.1544L6.35978 74.6122C3.13965 73.2788 0.36638 69.4058 0.0383589 65.784C-0.417784 60.7477 3.25006 55.6221 8.06432 54.5682C10.0038 54.1437 10.2892 53.8519 10.7663 51.8052C11.6081 48.1938 14.2107 42.6182 16.8184 38.8396C18.5698 36.3018 23.3871 31.575 26.0575 29.7741C29.1888 27.6624 33.0987 25.7194 34.2847 25.6858C36.4475 25.6243 37.8927 27.7413 37.0563 29.7454C36.7213 30.5481 36.1609 31.0096 34.4166 31.9191C29.2103 34.6339 25.2062 37.9078 22.1219 41.9717C20.5244 44.0767 17.7855 49.3364 17.4784 50.889L17.2932 51.8255L19.1978 52.166C23.5672 52.9471 25.2029 53.1013 29.0522 53.095C39.3176 53.0785 48.5586 49.6343 56.3042 42.9381C58.0303 41.4458 58.1901 41.21 58.0274 40.3954C57.754 39.0271 57.4071 38.7914 55.3758 38.5941C47.4245 37.8215 44.7734 37.4372 43.4952 36.872C41.8087 36.1263 40.3734 34.7952 39.3014 32.9828C38.5947 31.7881 38.502 31.3177 38.502 28.9282C38.502 26.3669 38.5571 26.1347 39.5519 24.504C41.517 21.2831 46.5595 14.6203 48.0423 13.2857C51.2258 10.42 55.9788 10.3825 59.1734 13.1979C60.8101 14.6403 60.8787 14.76 63.8811 21.4113L66.1823 26.5089L68.8129 27.0272C72.7657 27.8062 75.486 29.976 76.6605 33.2867L77.1727 34.7305L79.2869 35.043C81.0604 35.3052 81.5341 35.504 82.2261 36.2764C83.1126 37.2659 83.2563 38.2103 82.7048 39.422C82.1179 40.7119 81.1144 41.1501 78.8976 41.0846C76.2149 41.0054 76.2195 41.0043 75.995 41.7127C75.8868 42.0539 75.3997 42.7877 74.9125 43.3432L74.0267 44.3533L76.416 49.7059C77.7302 52.6498 79.0755 55.3625 79.4056 55.7342C80.0818 56.4957 81.7149 56.6524 82.5342 56.0346C82.808 55.8281 84.6562 53.429 86.6412 50.7034C89.657 46.5625 90.2504 45.5711 90.2507 44.6737C90.251 43.4061 89.4524 42.5444 87.7807 42.0086C85.7156 41.3466 84.9034 39.4197 85.8869 37.5155C86.5288 36.2728 87.7708 35.855 89.634 36.255C93.5928 37.105 96.2793 40.4733 96.3325 44.6533C96.3646 47.1723 95.7147 48.6905 93.0983 52.2086C91.0432 54.972 90.7923 55.6549 91.7232 55.9507C92.038 56.0507 92.8601 56.7457 93.5501 57.4951C98.5237 62.8973 96.9657 71.2595 90.3719 74.5534L88.8428 75.3173L88.6489 79.0038C88.1559 88.3747 83.7636 96.2952 75.6654 102.417C74.7776 103.088 74.0513 103.754 74.0513 103.897C74.0513 104.04 74.8275 104.553 75.7762 105.038C81.1156 107.765 85.8394 113.799 87.9083 120.534C88.5319 122.564 88.5581 123.243 88.668 140.26L88.7818 157.883L87.891 158.882L87.0003 159.88L48.6514 159.952C18.3662 160.01 10.1448 159.945 9.55253 159.648ZM52.4517 110.107C55.5662 109.351 56.611 108.717 66.4516 101.612C73.8138 96.2967 77.2376 93.0876 79.2561 89.6109C82.3962 84.2021 83.3241 78.7378 82.3181 71.5774C82.0861 69.9255 81.8013 67.4252 81.6853 66.021C81.5692 64.6169 81.3621 63.2507 81.2249 62.9849C81.0786 62.7016 80.4119 62.4245 79.6123 62.3148C76.5206 61.8905 74.2576 59.8231 72.4159 55.7402C71.7996 54.374 70.6638 51.8424 69.892 50.1144L68.4885 46.9725L66.2165 46.6208C64.9669 46.4274 63.6424 46.1072 63.273 45.9093C62.7176 45.6117 62.5021 45.6396 62.0265 46.0705C61.7103 46.3571 61.4515 46.7519 61.4515 46.9479C61.4515 47.4802 64.9391 50.7148 67.0589 52.1486C69.2606 53.6379 69.8513 54.3968 69.8513 55.7364C69.8513 57.6365 68.0947 59.1148 66.3561 58.6779C64.9622 58.3277 61.7019 56.0115 59.011 53.46C57.5863 52.109 56.3311 51.0036 56.2217 51.0036C56.1123 51.0036 55.2546 51.4956 54.3157 52.097C44.4211 58.4339 31.7706 60.6725 19.056 58.3365C16.6874 57.9014 16.0631 57.8707 15.872 58.1803C15.7412 58.3921 15.5453 59.6685 15.4367 61.0167C15.328 62.365 15.0434 64.9548 14.8043 66.7719C13.6004 75.9197 13.688 80.5756 15.1451 84.8716C17.0285 90.4249 20.6163 94.7835 27.1022 99.3979C29.0821 100.806 32.4571 103.24 34.602 104.805C39.1446 108.12 40.6063 108.994 42.818 109.718C46.0423 110.774 49.1782 110.901 52.4517 110.107ZM44.2958 98.4798C40.9947 97.1896 38.9456 95.2447 38.9619 93.4173C38.982 91.1708 41.1716 89.8687 43.1366 90.9347C47.2948 93.1904 48.0736 93.3889 50.082 92.705C50.6428 92.514 51.6417 91.9824 52.3017 91.5237C54.9608 89.6754 57.5516 90.6382 57.5516 93.4747C57.5516 94.6384 57.3958 94.9789 56.4266 95.9333C55.8079 96.5426 54.4241 97.4614 53.3517 97.9751C51.6406 98.7946 51.0525 98.9164 48.5518 98.9692C46.3921 99.0148 45.3613 98.8962 44.2958 98.4798ZM45.3371 83.8445C44.4387 83.6525 43.1519 82.0661 43.1519 81.1506C43.1519 80.198 43.9078 78.7319 44.5799 78.3809C45.4836 77.909 49.5899 77.6678 50.8654 78.0117C52.3769 78.4191 53.0608 79.1787 53.2609 80.6721C53.3964 81.6834 53.2879 82.0014 52.5104 82.873C51.6079 83.8846 51.5823 83.892 48.8017 83.9392C47.2618 83.9653 45.7027 83.9227 45.3371 83.8445ZM25.9289 75.3087C24.8763 74.0564 24.8745 72.4045 25.9242 71.1555C26.3488 70.6502 27.7119 69.7343 28.9533 69.1201C31.0055 68.1046 31.4321 68.0038 33.6561 68.0091C36.2791 68.0159 37.9508 68.5571 40.2478 70.1451C42.4115 71.641 42.8875 73.8406 41.3749 75.3549C40.1367 76.5946 38.7884 76.5434 36.8111 75.1816C35.5389 74.3054 35.0205 74.1304 33.6985 74.1304C32.3829 74.1304 31.8462 74.3097 30.5521 75.1816C28.4762 76.5802 27.0309 76.62 25.9289 75.3087ZM55.3576 75.5076C53.1537 73.4626 54.3726 70.8607 58.4398 68.9284C62.189 67.1471 66.9753 67.8582 70.0606 70.6548C71.3202 71.7966 71.4877 72.0925 71.4877 73.177C71.4877 74.1248 71.2879 74.6143 70.6134 75.3192C69.3738 76.6145 68.0056 76.5657 65.9065 75.1511C64.4443 74.1657 64.1519 74.0802 62.6216 74.1909C61.3216 74.2849 60.6468 74.5295 59.6375 75.2726C57.9972 76.4803 56.4948 76.5628 55.3576 75.5076ZM8.9306 64.2716C9.13801 62.4009 9.23202 60.7944 9.13949 60.7018C8.84769 60.4097 7.44798 61.509 6.83939 62.5083C6.18706 63.5794 6.06203 65.69 6.59008 66.7166C6.7757 67.0774 7.20941 67.6822 7.5539 68.0607C8.12948 68.693 8.19536 68.7051 8.36686 68.2108C8.46951 67.915 8.72319 66.1423 8.9306 64.2716ZM89.3237 67.702C90.8318 66.0947 90.6118 63.0601 88.8766 61.5347C87.8603 60.6413 87.2484 60.3795 87.2534 60.84C87.2589 61.3381 87.8548 66.5358 88.0109 67.4477C88.2107 68.6137 88.4285 68.6559 89.3237 67.702ZM69.3055 40.1502C71.0037 39.2805 71.7099 36.2474 70.5763 34.6924C69.9301 33.806 68.435 32.9828 67.4714 32.9828C66.2944 32.9828 64.7703 33.8382 64.1591 34.8419C62.1051 38.2149 65.7478 41.9723 69.3055 40.1502ZM59.1184 31.3965C59.5676 30.6996 60.0904 29.9192 60.2801 29.6622C60.5564 29.2878 60.1648 28.1443 58.3081 23.9047C57.0338 20.9951 55.7296 18.3333 55.4097 17.9896C54.8318 17.3686 53.3436 17.1562 52.3216 17.5488C51.8934 17.7133 45.6575 26.0291 44.7313 27.6706C44.1481 28.7043 44.2843 29.5948 45.1768 30.5824C45.9854 31.4772 46.094 31.5042 50.6517 31.9438C53.2092 32.1905 55.5041 32.4419 55.7516 32.5026C55.9991 32.5632 56.6741 32.6242 57.2516 32.6381C58.1681 32.6603 58.4054 32.5024 59.1184 31.3965ZM103.563 159.823C103.212 159.754 102.605 159.356 102.213 158.939L101.501 158.18L101.414 139.507C101.362 128.417 101.45 119.596 101.631 117.785C102.015 113.927 103.309 109.851 105.142 106.724C106.972 103.601 111.489 99.0239 114.476 97.267C115.672 96.5632 116.638 95.9013 116.624 95.7963C116.609 95.6911 115.63 94.7851 114.449 93.7827C111.555 91.3279 109.449 88.6707 107.679 85.2432C105.463 80.9522 104.623 77.8001 104.433 73.0589L104.276 69.134L102.888 68.4065C96.2646 64.9337 94.7132 56.27 99.7213 50.7201C100.723 49.6104 103.475 48.0468 105.401 47.4938C106.17 47.273 106.325 47.0553 106.466 45.9993C106.597 45.0236 106.45 44.3926 105.769 43.0029C102.215 35.7537 101.205 28.2515 103.033 22.6864C104.712 17.5778 109.775 11.6342 115.676 7.84518C124.075 2.45211 136.258 -0.48126 147.99 0.0647683C154.178 0.352738 159.074 1.24991 164.217 3.03801C168.351 4.47527 169.369 5.38249 169.051 7.34617C168.836 8.66748 168.185 9.43118 166.916 9.85076C166.092 10.1228 165.542 10.0189 163.079 9.12656C157.255 7.01588 152.498 6.2017 146.068 6.21499C130.203 6.24779 116.883 11.6955 110.949 20.5785C108.809 23.7812 108.121 26.2472 108.335 29.9444C108.588 34.32 110.926 41.0066 112.09 40.6798C112.371 40.6009 113.073 40.4466 113.651 40.3368C115.592 39.9679 120.087 38.482 121.6 37.7093C123.619 36.6782 125.521 35.2618 126.124 34.3401C126.606 33.603 126.591 33.5511 125.535 32.381C124.634 31.383 124.45 30.9543 124.45 29.855C124.45 28.7453 124.6 28.4052 125.373 27.7534C126.367 26.916 127.66 26.75 128.745 27.3204C129.105 27.5099 130.143 28.296 131.05 29.0673C133.107 30.8153 134.31 31.5452 136.6 32.4342C138.187 33.0501 138.898 33.1312 142.6 33.1182C147.203 33.102 148.423 32.8421 155.65 30.3374C160.275 28.7344 162.852 28.3549 167.731 28.5584C170.755 28.6845 172.342 28.9108 174.399 29.5093C177.542 30.4237 182.453 32.7196 185.067 34.497C186.073 35.1805 186.964 35.6711 187.048 35.5871C187.332 35.3027 185.603 30.1429 184.439 27.7988C181.924 22.7372 178.267 18.3908 173.43 14.7169C172.072 13.6852 170.823 12.5838 170.655 12.2694C170.038 11.1158 170.298 9.84787 171.369 8.77481C172.521 7.62195 173.663 7.45028 174.858 8.25049C184.772 14.8914 191.295 24.428 193.317 35.2354C193.971 38.7274 194.226 44.4053 193.768 45.2622C193.287 46.1615 191.58 46.8675 190.521 46.6053C190.069 46.4932 188.56 45.3375 187.169 44.0369C180.464 37.7701 173.207 34.4846 166.072 34.4846C163.191 34.4846 161.112 34.9471 155.35 36.8699C149.227 38.9127 146.773 39.3871 142.426 39.368C138.818 39.3521 136.533 38.9536 133.805 37.8644L131.911 37.108L130.316 38.7826C126.906 42.3643 120.097 45.64 114.523 46.3803C113.719 46.4871 112.935 46.7263 112.782 46.9119C112.628 47.0975 112.212 50.4255 111.858 54.3075C111.503 58.1895 111.02 63.1227 110.785 65.2701C110.031 72.1388 110.354 76.1307 111.992 80.2211C114.092 85.4605 116.814 88.2556 127 95.6292C131.125 98.6151 134.973 101.341 135.55 101.687C139.773 104.216 145.862 104.663 150.346 102.773C152.407 101.905 153.83 100.984 159.55 96.8175C169.855 89.3109 171.204 88.1982 173.033 85.6938C177.229 79.95 178.333 74.96 177.419 65.8708C176.446 56.2036 175.449 45.1346 175.449 44.0061C175.449 41.6903 178.129 40.2782 180.087 41.5625C180.944 42.1246 181.351 43.1888 181.62 45.5738L181.821 47.3462L183.18 47.6889C184.942 48.1331 185.851 48.6164 187.474 49.9713C193.579 55.0698 192.385 64.9411 185.244 68.4021L183.849 69.0781V71.4323C183.849 80.1749 180.018 88.5778 173.573 93.969C172.543 94.8312 171.699 95.6784 171.699 95.8517C171.699 96.0249 172.443 96.6015 173.351 97.1331C175.62 98.4604 176.186 99.1552 176.186 100.616C176.186 101.599 176.005 101.986 175.213 102.694C173.942 103.831 172.809 103.815 170.743 102.631C169.847 102.118 169.075 101.746 169.028 101.805C168.981 101.864 168.57 103.129 168.114 104.616C166.428 110.108 163.557 114.222 159.097 117.537C154.524 120.934 150.923 122.191 145.142 122.407C141.616 122.539 140.732 122.471 138.392 121.887C134.241 120.851 130.784 119.143 128.425 116.962C127.632 116.229 127.45 115.833 127.45 114.835C127.45 113.31 128.051 112.42 129.375 111.982C130.573 111.587 131.699 111.96 133.917 113.488C134.673 114.008 136.395 114.842 137.745 115.342C142.585 117.133 147.773 116.775 152.736 114.307C157.076 112.15 161.129 107.33 162.131 103.136L162.341 102.257L160.57 103.618C154.377 108.379 150.18 110.004 144.1 109.998C137.98 109.991 134.286 108.588 127.84 103.82C126.94 103.154 126.127 102.687 126.032 102.781C125.938 102.876 126.294 104.05 126.823 105.39C127.944 108.23 127.878 109.158 126.468 110.346C125.702 110.991 125.318 111.108 124.378 110.981C123.745 110.896 123.012 110.648 122.749 110.43C122.086 109.879 120.475 106.221 119.826 103.79C119.528 102.675 119.225 101.762 119.152 101.762C118.795 101.762 116.936 102.882 115.539 103.937C112.282 106.4 109.453 110.707 108.258 115.023C107.705 117.021 107.651 118.1 107.651 127.061V136.903H112.151H116.65L116.667 131.121C116.687 124.389 116.883 123.49 118.503 122.697C119.991 121.969 121.366 122.326 122.275 123.676L122.95 124.678V139.352V154.027L144.025 153.95L165.099 153.873L165.249 139.142C165.387 125.606 165.443 124.345 165.94 123.586C166.686 122.447 167.819 122.056 169.191 122.465C171.228 123.073 171.387 123.638 171.496 130.671L171.593 136.903H176.089H180.585L180.488 126.466C180.38 114.741 180.424 115.007 177.771 109.795C176.426 107.155 176.437 106.434 177.841 105.028C178.891 103.977 180.397 103.873 181.54 104.773C182.973 105.902 185.178 110.632 186.157 114.677C186.554 116.322 186.649 119.779 186.759 136.603C186.905 158.858 186.927 158.565 185.049 159.504C184.064 159.996 181.533 160.026 144.1 159.988C122.155 159.966 103.914 159.892 103.563 159.823ZM116.582 148.391L116.664 142.91H112.157H107.651V148.266C107.651 151.212 107.744 153.716 107.858 153.83C107.973 153.945 109.964 154.001 112.283 153.956L116.5 153.873L116.582 148.391ZM180.481 148.391L180.563 142.91H176.056H171.549V148.474V154.039L175.974 153.956L180.399 153.873L180.481 148.391ZM184.79 60.4646C185.468 58.9725 185.487 57.9675 184.865 56.4121C184.438 55.3446 182.818 53.7377 182.495 54.0614C182.429 54.1272 182.571 55.9328 182.809 58.0737C183.048 60.2147 183.244 62.0842 183.246 62.2284C183.253 62.775 184.267 61.6161 184.79 60.4646ZM105.228 59.0379C105.417 57.3447 105.63 55.5929 105.701 55.1451C105.877 54.0437 105.485 53.8863 104.5 54.6623C103.026 55.823 102.437 58.2855 103.172 60.2192C103.513 61.1172 104.298 62.1165 104.663 62.1165C104.784 62.1165 105.038 60.7311 105.228 59.0379ZM140.946 92.5999C138.432 91.9882 135.488 90.1155 134.688 88.6183C133.846 87.0426 134.573 85.1953 136.325 84.4626C137.492 83.9742 138.268 84.1917 140.158 85.5369C142.717 87.3583 145.528 87.2863 148.375 85.3263C150.125 84.1219 151.277 83.9629 152.489 84.7584C154.262 85.9209 154.201 88.1888 152.352 89.8608C149.329 92.5951 145.1 93.6106 140.946 92.5999ZM139.327 77.1108C138.446 76.0631 138.33 74.8275 138.991 73.5474C139.488 72.5852 140.773 72.028 142.495 72.028H143.65V68.1085C143.65 62.9021 144.194 61.8162 146.803 61.8162C147.611 61.8162 148.125 62.0451 148.773 62.6941L149.65 63.572V69.9255V76.279L148.773 77.157L147.896 78.0349H144H140.103L139.327 77.1108ZM126.527 70.5493C125.674 69.6957 125.65 69.588 125.65 66.659C125.65 62.7376 125.952 62.1011 128.142 61.3959C128.891 61.1546 130.571 61.9096 131.161 62.7523C131.826 63.7032 131.851 68.6651 131.197 69.9315C130.282 71.7028 127.983 72.007 126.527 70.5493ZM157.426 70.5493C156.57 69.692 156.55 69.5983 156.55 66.5615C156.55 63.0436 156.835 62.343 158.562 61.6206C159.491 61.2317 159.707 61.2425 160.695 61.7274C162.319 62.524 162.582 63.2791 162.484 66.8735C162.403 69.8563 162.366 70.0072 161.558 70.7029C160.322 71.7661 158.577 71.7012 157.426 70.5493ZM121.098 56.7967C118.016 54.8821 120.112 50.9937 125.127 49.3263C127.399 48.5708 131.412 48.837 133.413 49.8759C137.615 52.0589 138.741 54.5837 136.394 56.561C135.156 57.604 134.095 57.5101 132.205 56.1898C130.756 55.1775 130.411 55.0683 128.65 55.0636C126.885 55.059 126.544 55.1653 125.054 56.1846C123.256 57.4151 122.326 57.5591 121.098 56.7967ZM151.57 56.2898C149.923 54.6415 150.258 53.0154 152.629 51.137C154.776 49.4356 156.853 48.824 160 48.9663C162.996 49.1017 164.714 49.7023 166.718 51.3152C168.826 53.0105 169.057 55.0758 167.304 56.552C166.055 57.6047 165.005 57.5128 163.108 56.1846C161.65 55.1638 161.317 55.0583 159.55 55.0583C157.782 55.0583 157.449 55.1638 155.991 56.1846C153.926 57.6302 152.932 57.6539 151.57 56.2898Z" fill="#FF7E70"/>
</svg>
