<svg width="37" height="36" viewBox="0 0 37 36" fill="none" xmlns="http://www.w3.org/2000/svg">
<g clip-path="url(#clip0_2256_40)">
<path d="M18.5 7.875C18.5 7.57663 18.3782 7.29048 18.1613 7.07951C17.9445 6.86853 17.6504 6.75 17.3438 6.75C17.0371 6.75 16.743 6.86853 16.5262 7.07951C16.3093 7.29048 16.1875 7.57663 16.1875 7.875V20.25C16.1876 20.4483 16.2415 20.6431 16.3438 20.8145C16.4462 20.986 16.5933 21.1281 16.7702 21.2265L24.864 25.7265C25.1296 25.8662 25.4408 25.8992 25.7312 25.8186C26.0215 25.7379 26.2679 25.55 26.4176 25.2949C26.5674 25.0399 26.6088 24.7379 26.5328 24.4536C26.4568 24.1693 26.2695 23.9252 26.011 23.7735L18.5 19.5975V7.875Z" fill="#FF7E70"/>
<path d="M18.5 36C23.4065 36 28.1121 34.1036 31.5815 30.7279C35.0509 27.3523 37 22.7739 37 18C37 13.2261 35.0509 8.64773 31.5815 5.27208C28.1121 1.89642 23.4065 0 18.5 0C13.5935 0 8.88795 1.89642 5.41852 5.27208C1.9491 8.64773 0 13.2261 0 18C0 22.7739 1.9491 27.3523 5.41852 30.7279C8.88795 34.1036 13.5935 36 18.5 36ZM34.6875 18C34.6875 22.1772 32.982 26.1832 29.9463 29.1369C26.9105 32.0906 22.7932 33.75 18.5 33.75C14.2068 33.75 10.0895 32.0906 7.05371 29.1369C4.01796 26.1832 2.3125 22.1772 2.3125 18C2.3125 13.8228 4.01796 9.81677 7.05371 6.86307C10.0895 3.90937 14.2068 2.25 18.5 2.25C22.7932 2.25 26.9105 3.90937 29.9463 6.86307C32.982 9.81677 34.6875 13.8228 34.6875 18Z" fill="#FF7E70"/>
</g>
<defs>
<clipPath id="clip0_2256_40">
<rect width="37" height="36" fill="white"/>
</clipPath>
</defs>
</svg>
