<svg width="122" height="140" viewBox="0 0 122 140" fill="none" xmlns="http://www.w3.org/2000/svg">
<path d="M7.13111 138.968C6.19197 137.937 6.26435 137.443 9.03534 125.969C11.6683 115.066 11.9135 113.501 11.889 107.747C11.8572 100.268 10.7243 95.3323 7.32724 87.8725C1.62088 75.3413 -0.050723 68.0122 0.0011638 55.7517C0.0432956 45.7975 0.722918 42.2253 4.11394 34.1346C7.70582 25.5646 11.0056 22.5628 13.1916 25.8766C14.077 27.2188 14.0409 27.3831 12.104 30.8232C7.63205 38.766 5.61806 46.4396 5.56141 55.7517C5.49943 65.9407 7.27411 73.5509 12.4006 85.0795C16.5977 94.5181 17.4678 98.3795 17.5083 107.747C17.5413 115.406 17.4499 116.066 14.8892 126.63C13.43 132.65 11.8828 138.13 11.4511 138.808C10.4804 140.331 8.44189 140.406 7.13111 138.968ZM62.766 138.946C61.8015 137.888 61.8394 137.616 63.9878 130.189L66.205 122.525L64.4846 122.519C59.6913 122.5 51.4824 119 47.4189 115.241C44.596 112.63 44.306 111.577 45.9577 109.937C47.5107 108.394 48.2331 108.545 51.2703 111.049C54.6727 113.854 58.5703 115.693 62.7276 116.454C67.5947 117.344 88.7056 117.234 91.8252 116.301C95.375 115.24 98.0261 113.034 99.6563 109.785C100.999 107.109 101.061 106.568 101.061 97.5146C101.061 85.3798 100.713 85.8547 109.602 85.8547C113.087 85.8547 115.939 85.678 115.939 85.462C115.939 85.246 113.978 78.6576 111.581 70.8211C108.416 60.4718 107.136 55.4049 106.902 52.3039C105.97 39.9284 100.72 28.935 91.4289 19.9025C80.666 9.43927 65.5205 4.21696 50.7698 5.88298C44.7397 6.56406 37.0841 8.86797 32.1219 11.495C28.5117 13.4063 27.3189 13.3704 26.1578 11.3158C25.3987 9.97242 25.4198 9.75377 26.4144 8.6595C28.9765 5.84049 39.6123 1.7495 47.7425 0.455711C53.5024 -0.460873 64.1823 0.0571699 70.1791 1.54402C75.59 2.88562 83.4303 6.43543 88.4547 9.81861C96.6402 15.3304 104.766 25.3936 108.628 34.8028C110.752 39.9787 112.614 48.0397 112.625 52.1095C112.629 53.8619 114.221 59.9228 117.316 69.9824C119.892 78.3541 122 85.8389 122 86.6152C122 87.401 121.288 88.819 120.393 89.8141C118.799 91.5878 118.742 91.6029 113.013 91.7865L107.24 91.9715L107.023 99.9963C106.821 107.422 106.687 108.278 105.225 111.465C103.242 115.786 98.9879 119.799 94.7014 121.392C92.0388 122.381 90.4137 122.525 81.8912 122.525H72.1304L70.0161 130.051C68.8532 134.19 67.546 138.131 67.1111 138.808C66.1282 140.339 64.0935 140.404 62.766 138.946ZM43.5174 94.846C42.3347 93.6713 42.415 92.6428 44.3046 84.7597C45.2066 80.9969 45.9475 77.747 45.9511 77.5377C45.9546 77.3284 44.7879 77.0821 43.3581 76.9904C41.2314 76.8539 40.6146 76.5679 39.9675 75.4178C39.2108 74.0731 39.3477 73.7474 43.1181 67.9232C45.286 64.5744 47.0598 61.7335 47.0598 61.6101C47.0598 61.4867 44.7257 61.2474 41.873 61.0784C33.926 60.6075 29.6911 58.2788 26.99 52.8948C24.4083 47.7489 25.246 41.2845 29.079 36.7749C30.8123 34.7355 35.611 32.2169 37.7633 32.2169C38.8363 32.2169 39.3829 31.8671 39.6588 31.0034C40.4071 28.6618 45.8561 23.6559 49.4228 22.0335C52.3728 20.6916 53.5305 20.4759 57.8049 20.4717C62.0179 20.4675 63.2347 20.6846 65.8913 21.9142C69.5618 23.6132 73.5884 27.129 75.2725 30.1053C76.3442 31.9992 76.6918 32.2169 78.6438 32.2169C82.061 32.2169 84.9378 33.3221 87.6162 35.6638C91.3158 38.8985 92.4943 41.5035 92.4943 46.4473C92.4943 51.3159 91.3594 53.8932 87.8151 57.0737C84.6405 59.9224 82.5637 60.6554 76.5566 61.0474L71.3804 61.3851L68.7461 64.0416L66.1118 66.6981H68.072C70.1201 66.6981 71.8562 68.0049 71.8562 69.5467C71.8562 70.0124 66.215 76.094 59.3202 83.0614C46.4755 96.0414 45.4733 96.7888 43.5174 94.846ZM59.7012 72.1284C55.3294 71.5173 55.3646 69.3446 59.8209 64.7351L63.2145 61.2249H58.7509H54.2873L50.9693 66.2876L47.6514 71.3504L49.5875 71.5219C52.5561 71.7848 52.9346 73.2037 51.5888 79.0237L50.4837 83.8027L56.2252 78.1239L61.9668 72.445L59.7012 72.1284ZM82.2922 54.1268C85.2564 52.6247 86.734 50.0453 86.734 46.3729C86.734 40.8017 82.2965 37.0777 76.6587 37.9175C73.3418 38.4115 72.636 38.0088 71.1322 34.7644C68.4709 29.0225 64.1084 26.228 57.7753 26.2084C51.3874 26.1888 46.7325 29.1375 44.1937 34.8122C43.1307 37.188 42.8696 37.3324 38.6053 37.9022C31.7616 38.8167 28.7479 47.306 33.4584 52.4007C35.9504 55.096 36.5407 55.1601 59.0666 55.183C78.9908 55.2032 80.2839 55.1444 82.2922 54.1268ZM17.5243 20.3043C16.396 19.556 15.7725 17.7357 16.2314 16.5296C16.8569 14.8857 18.7142 14.4186 20.3617 15.4909C21.9987 16.5562 22.0947 18.1541 20.6103 19.6285C19.4545 20.7765 18.5386 20.977 17.5243 20.3043Z" fill="#FF7E70"/>
</svg>
