<svg width="147" height="157" viewBox="0 0 147 157" fill="none" xmlns="http://www.w3.org/2000/svg">
<path d="M31.2234 156.219C17.0454 153.022 4.85618 141.044 1.19865 126.715C-0.280342 120.921 -0.407262 112.277 0.910359 107.083C2.10516 102.373 5.60944 95.1893 7.92187 92.7089C9.45365 91.0658 9.92071 90.8723 10.9816 91.4412C12.6394 92.3302 12.5644 94.1646 10.7724 96.5605C7.24692 101.274 4.2704 110.233 4.2704 116.132C4.2704 120.943 6.02709 128.232 8.38279 133.194C11.1918 139.112 17.4804 145.511 23.2925 148.367C36.2381 154.726 51.9645 153.108 62.9039 144.291C66.9643 141.018 71.8524 133.723 73.5438 128.41C74.3569 125.857 74.9692 121.964 75.1568 118.156C75.688 107.374 72.7829 99.9419 64.9356 92.0061C61.4435 88.4747 59.1767 86.7895 55.6189 85.08C50.95 82.8365 43.5859 81.0113 39.2862 81.0317C35.0326 81.0526 28.4536 82.832 23.676 85.2554C18.9244 87.6656 18.8752 87.6757 17.6894 86.4875C16.7912 85.5876 16.6417 85.0125 17.0885 84.1759C17.9595 82.5452 24.8838 79.3299 30.6972 77.8569C36.9972 76.2606 46.1078 76.4912 51.5915 78.3859L55.1138 79.6029L55.1277 61.1306C55.1393 44.5233 55.2548 42.4104 56.2664 40.2031C57.6047 37.2827 58.9708 35.974 62.0084 34.7022C64.8598 33.5084 68.3895 33.5005 70.6517 34.6837C71.6167 35.188 72.5126 35.6006 72.6426 35.6006C72.7724 35.6006 72.8788 31.9988 72.8788 27.5967C72.8788 20.8347 73.0668 19.2237 74.0901 17.2138C75.5181 14.4091 77.7152 12.7093 81.3017 11.6344C83.7998 10.8857 85.5547 11.1122 89.206 12.6543C89.6438 12.8392 90.0791 11.9485 90.3504 10.3126C91.3761 4.12838 95.7848 0 101.363 0C106.942 0 111.351 4.12838 112.376 10.3126C112.648 11.9485 113.083 12.8392 113.521 12.6543C117.172 11.1122 118.927 10.8857 121.425 11.6344C125.012 12.7093 127.209 14.4091 128.637 17.2138C129.759 19.4189 129.848 20.8709 129.848 37.0793V54.5659L131.972 53.6765C137.055 51.5487 143.01 53.5134 145.628 58.1813C146.993 60.6145 147 60.7675 147 88.6073C147 120.379 146.808 122.165 142.459 130.919C140.604 134.653 139.609 136.007 138.619 136.148C137.788 136.267 137.043 135.892 136.651 135.158C136.154 134.228 136.467 133.078 138.119 129.75C142.356 121.216 142.406 120.749 142.406 89.2048V60.8662L140.929 59.2913C138.99 57.2221 136.061 56.6897 133.608 57.9605C130.012 59.8241 129.848 60.7684 129.848 79.6412C129.848 92.1183 129.649 96.9344 129.113 97.472C128.709 97.8771 127.517 98.2086 126.465 98.2086C118.633 98.2086 110.246 106.613 110.246 114.461C110.246 117.649 107.321 119.175 105.989 116.682C105.13 115.073 106.273 109.19 108.177 105.424C110.939 99.964 117.037 95.2608 122.954 94.0287L125.254 93.5499V56.5453V19.5407L123.253 17.7498C120.459 15.2488 116.985 15.2501 114.487 17.7521L112.696 19.5463V43.5722C112.696 58.9601 112.468 68.025 112.062 68.7854C111.332 70.1512 109.481 70.3475 108.5 69.163C108.04 68.6071 107.776 58.8775 107.659 38.1124L107.489 7.87144L105.77 6.39045C103.393 4.34169 99.334 4.34169 96.9564 6.39045L95.2377 7.87144L95.0675 38.1124C94.9506 58.8775 94.6872 68.6071 94.2268 69.163C93.2458 70.3475 91.3944 70.1512 90.6649 68.7854C90.2588 68.025 90.0308 58.9601 90.0308 43.5722V19.5463L88.2402 17.7521C85.7424 15.2493 82.2674 15.2479 79.4736 17.7475L77.4731 19.5381L77.1668 49.5118L76.8605 79.4855H75.0228H73.1851L72.8788 61.0715C72.5431 40.8861 72.4602 40.4267 68.8859 38.9303C66.1321 37.7773 63.4026 38.4104 61.5342 40.6352L60.0148 42.4446V62.2428V82.0409L63.0492 84.0111C67.8389 87.1209 72.6529 92.905 75.6304 99.1272C78.9757 106.118 79.8656 109.936 79.8516 117.234C79.8354 125.267 77.9991 131.752 73.8133 138.547L72.2169 141.139L76.0702 143.984C84.0302 149.86 91.1927 152.221 101.057 152.221C111.064 152.221 120.429 148.976 127.633 143.011C130.965 140.252 131.216 140.176 132.561 141.524C133.93 142.896 133.779 143.51 131.559 145.588C122.418 154.144 107.66 158.514 94.6251 156.524C85.8541 155.185 75.4003 150.426 71.0582 145.795L69.6481 144.291L66.516 146.954C58.917 153.415 51.0319 156.526 41.3314 156.887C37.3782 157.035 33.793 156.798 31.2234 156.219ZM31.7117 147.021C27.0185 145.726 21.1494 142.22 20.9078 140.567C20.7377 139.402 24.4825 135.351 41.4256 118.368C52.8565 106.91 62.6321 97.5937 63.2231 97.5937C64.6436 97.5937 67.6184 101.791 69.2513 106.098C70.8695 110.367 71.471 118.767 70.4876 123.362C68.2354 133.885 59.4332 143.485 49.0766 146.712C44.5372 148.127 36.2541 148.274 31.7117 147.021ZM47.0738 142.473C52.2146 140.869 55.5048 138.8 59.2903 134.789C66.6811 126.959 68.6063 116.1 64.3237 106.4L63.0334 103.477L44.9844 121.554C35.0575 131.497 26.9354 139.818 26.9354 140.045C26.9354 140.523 31.443 142.32 34.4064 143.023C38.0274 143.882 43.2863 143.654 47.0738 142.473ZM13.6534 133.655C11.2222 129.831 9.22859 123.904 8.79266 119.204C7.01822 100.073 25.192 82.9749 44.1929 85.8991C50.7378 86.9064 59.4017 91.2573 59.4017 93.5369C59.4017 94.656 17.5148 136.263 16.3882 136.263C15.7906 136.263 14.5744 135.103 13.6534 133.655ZM35.5153 112.003C50.0003 97.4741 53.4001 93.7612 52.6634 93.276C52.1581 92.9431 49.8511 92.0843 47.5368 91.3674C35.2428 87.5595 21.9583 93.502 16.0679 105.444C13.8259 109.99 13.7652 110.292 13.7654 116.897C13.7655 122.721 13.9712 124.136 15.2191 126.903C16.0185 128.675 16.8472 130.125 17.0605 130.125C17.274 130.125 25.5785 121.97 35.5153 112.003Z" fill="#FF7E70"/>
</svg>
