<svg width="109" height="146" viewBox="0 0 109 146" fill="none" xmlns="http://www.w3.org/2000/svg">
<path d="M25.4864 136.126C21.6956 125.2 22.1544 125.539 9.09073 124.019C4.95801 123.538 0.924391 122.789 0.127119 122.355C-0.774096 121.864 3.16062 116.338 10.5296 107.744C24.1397 91.8727 41.5116 69.2899 50.642 55.5999C63.5275 36.2793 72.5898 16.1212 70.6592 11.0736C68.591 5.66597 51.8636 3.52326 42.152 7.42191C42.152 7.42191 38.7058 8.70628 37.7547 10.3122C36.6705 12.1427 37.7168 15.8474 37.7168 15.8474C38.1712 19.6965 40.7479 26.7436 44.2697 33.7688L50.0737 45.3467L40.2281 59.858C34.813 67.8392 30.0486 74.3868 29.6407 74.4083C28.2076 74.4838 19.8038 54.8967 18.3743 48.1494C13.0619 23.0757 30.3467 0 54.4404 0C67.974 0 79.2608 7.33011 86.4172 20.767C88.8345 25.3058 89.2427 27.9782 89.2427 39.2654C89.2427 51.5326 88.9582 53.0613 85.1892 61.0453C82.9598 65.7679 77.5122 75.6628 73.0833 83.034C62.5585 100.551 31.3229 145.844 29.66 146C29.2624 146.038 27.3835 141.594 25.4864 136.126ZM70.2631 135.697C56.9698 117.548 57.1715 121.425 68.5457 102.691C73.9912 93.7222 78.884 86.6668 79.4185 87.0123C79.9531 87.358 84.8481 93.012 90.2963 99.5772C95.7445 106.142 102.471 113.885 105.244 116.782C111.039 122.838 111.726 122.279 95.6172 124.608C90.8588 125.296 86.5788 126.307 86.1061 126.854C85.6333 127.401 83.9445 131.524 82.3529 136.016C80.7613 140.508 79.0976 144.605 78.6559 145.121C78.2143 145.637 74.4374 141.396 70.2631 135.697Z" fill="#FF7E70"/>
</svg>
