<svg width="38" height="36" viewBox="0 0 38 36" fill="none" xmlns="http://www.w3.org/2000/svg">
<path d="M18.7381 6.43673L17.0587 4.71046C13.1166 0.658297 5.88827 2.05665 3.27896 7.15113C2.05394 9.54729 1.77755 13.0069 4.01444 17.4221C6.16935 21.6733 10.6525 26.7655 18.7381 32.312C26.8237 26.7655 31.3045 21.6733 33.4617 17.4221C35.6986 13.0045 35.4246 9.54729 34.1972 7.15113C31.5879 2.05665 24.3596 0.655955 20.4175 4.70812L18.7381 6.43673ZM18.7381 35.1345C-17.1763 11.4024 7.68013 -7.12045 18.3258 2.67735C18.4664 2.80696 18.6038 2.94047 18.7381 3.07788C18.87 2.9396 19.0076 2.80676 19.1503 2.67969C29.7937 -7.12514 54.6524 11.4 18.7381 35.1345Z" fill="#FF7E70"/>
</svg>
