<svg width="27" height="27" viewBox="0 0 27 27" fill="none" xmlns="http://www.w3.org/2000/svg">
<path d="M13.1393 0C9.57363 0 9.12525 0.0164241 7.72427 0.0788359C6.32329 0.144532 5.36905 0.364616 4.53306 0.689814C3.65576 1.01883 2.86132 1.53631 2.20576 2.20576C1.53631 2.86132 1.01883 3.65576 0.689814 4.53306C0.364616 5.36741 0.14289 6.32329 0.0788359 7.71935C0.0164241 9.12361 0 9.57035 0 13.141C0 16.7083 0.0164241 17.155 0.0788359 18.556C0.144532 19.9553 0.364616 20.9096 0.689814 21.7456C1.02651 22.6095 1.47489 23.342 2.20576 24.0729C2.93499 24.8037 3.66751 25.2538 4.53142 25.5888C5.36905 25.914 6.32165 26.1357 7.72099 26.1998C9.12361 26.2622 9.57035 26.2786 13.1393 26.2786C16.7083 26.2786 17.1534 26.2622 18.556 26.1998C19.9537 26.1341 20.9112 25.914 21.7472 25.5888C22.6239 25.2596 23.4178 24.7421 24.0729 24.0729C24.8037 23.342 25.2521 22.6095 25.5888 21.7456C25.9124 20.9096 26.1341 19.9553 26.1998 18.556C26.2622 17.155 26.2786 16.7083 26.2786 13.1393C26.2786 9.57035 26.2622 9.12361 26.1998 7.72099C26.1341 6.32329 25.9124 5.36741 25.5888 4.53306C25.2598 3.65576 24.7423 2.86132 24.0729 2.20576C23.4173 1.53631 22.6229 1.01883 21.7456 0.689814C20.9079 0.364616 19.952 0.14289 18.5544 0.0788359C17.1517 0.0164241 16.7066 0 13.136 0H13.1393ZM11.9617 2.36836H13.141C16.6492 2.36836 17.0647 2.37986 18.4492 2.44391C19.7303 2.5014 20.4267 2.71655 20.8899 2.89558C21.5025 3.13373 21.941 3.41951 22.4009 3.87938C22.8608 4.33926 23.1449 4.77614 23.3831 5.3904C23.5637 5.85192 23.7772 6.54831 23.8347 7.82939C23.8988 9.21394 23.9119 9.62947 23.9119 13.136C23.9119 16.6426 23.8988 17.0598 23.8347 18.4443C23.7772 19.7254 23.5621 20.4201 23.3831 20.8833C23.1709 21.4531 22.8349 21.9686 22.3992 22.3927C21.9394 22.8525 21.5025 23.1367 20.8882 23.3748C20.4283 23.5555 19.732 23.769 18.4492 23.8281C17.0647 23.8906 16.6492 23.9053 13.141 23.9053C9.63276 23.9053 9.21559 23.8906 7.83103 23.8281C6.54995 23.769 5.85521 23.5555 5.39205 23.3748C4.82185 23.1634 4.30575 22.8279 3.88102 22.3927C3.44459 21.9683 3.10799 21.4521 2.89558 20.8817C2.71655 20.4201 2.5014 19.7238 2.44391 18.4427C2.3815 17.0581 2.36836 16.6426 2.36836 13.1327C2.36836 9.6229 2.3815 9.21066 2.44391 7.8261C2.50304 6.54502 2.71655 5.84864 2.89722 5.38548C3.13537 4.77286 3.42115 4.33433 3.88102 3.87445C4.3409 3.41458 4.77778 3.13044 5.39205 2.89229C5.85521 2.71163 6.54995 2.49811 7.83103 2.43898C9.04313 2.38314 9.51286 2.36672 11.9617 2.36508V2.36836ZM20.1541 4.54949C19.947 4.54949 19.742 4.59027 19.5507 4.66951C19.3594 4.74874 19.1856 4.86489 19.0392 5.0113C18.8927 5.15771 18.7766 5.33152 18.6974 5.52282C18.6181 5.71412 18.5773 5.91915 18.5773 6.1262C18.5773 6.33326 18.6181 6.53829 18.6974 6.72959C18.7766 6.92088 18.8927 7.0947 19.0392 7.24111C19.1856 7.38752 19.3594 7.50366 19.5507 7.5829C19.742 7.66214 19.947 7.70292 20.1541 7.70292C20.5722 7.70292 20.9733 7.5368 21.269 7.24111C21.5647 6.94542 21.7308 6.54438 21.7308 6.1262C21.7308 5.70803 21.5647 5.30699 21.269 5.0113C20.9733 4.71561 20.5722 4.54949 20.1541 4.54949ZM13.141 6.39228C12.246 6.37831 11.3571 6.54253 10.5262 6.87538C9.69527 7.20822 8.93886 7.70304 8.30101 8.33102C7.66315 8.959 7.1566 9.7076 6.81083 10.5332C6.46506 11.3589 6.287 12.245 6.287 13.1401C6.287 14.0352 6.46506 14.9214 6.81083 15.747C7.1566 16.5727 7.66315 17.3213 8.30101 17.9492C8.93886 18.5772 9.69527 19.072 10.5262 19.4049C11.3571 19.7377 12.246 19.902 13.141 19.888C14.9124 19.8604 16.6019 19.1373 17.8448 17.8748C19.0877 16.6123 19.7844 14.9118 19.7844 13.1401C19.7844 11.3685 19.0877 9.66793 17.8448 8.40546C16.6019 7.143 14.9124 6.41991 13.141 6.39228ZM13.141 8.759C13.7162 8.759 14.2858 8.87229 14.8172 9.09243C15.3487 9.31256 15.8316 9.63521 16.2383 10.042C16.6451 10.4487 16.9677 10.9316 17.1878 11.463C17.408 11.9945 17.5213 12.5641 17.5213 13.1393C17.5213 13.7145 17.408 14.2841 17.1878 14.8156C16.9677 15.347 16.6451 15.8299 16.2383 16.2367C15.8316 16.6434 15.3487 16.9661 14.8172 17.1862C14.2858 17.4063 13.7162 17.5196 13.141 17.5196C11.9792 17.5196 10.8651 17.0581 10.0436 16.2367C9.22213 15.4152 8.76064 14.301 8.76064 13.1393C8.76064 11.9776 9.22213 10.8634 10.0436 10.042C10.8651 9.22049 11.9792 8.759 13.141 8.759Z" fill="white"/>
</svg>
