<svg width="27" height="27" viewBox="0 0 27 27" fill="none" xmlns="http://www.w3.org/2000/svg">
<path d="M0 1.92403C0 0.861282 0.883108 0 1.97272 0H24.8899C25.9795 0 26.8626 0.861282 26.8626 1.92403V24.9386C26.8626 26.0013 25.9795 26.8626 24.8899 26.8626H1.97272C0.883108 26.8626 0 26.0013 0 24.9386V1.92403ZM6.28333 22.4873C7.39648 22.4873 8.29886 21.585 8.29886 20.4718V12.3727C8.29886 11.2596 7.39648 10.3572 6.28333 10.3572C5.17018 10.3572 4.26779 11.2596 4.26779 12.3727V20.4718C4.26779 21.585 5.17018 22.4873 6.28333 22.4873ZM6.28417 8.70012C7.68942 8.70012 8.56413 7.77001 8.56413 6.60484C8.53895 5.41449 7.6911 4.50956 6.31103 4.50956C4.93096 4.50956 4.02939 5.41617 4.02939 6.60484C4.02939 7.77001 4.9041 8.70012 6.25731 8.70012H6.28417ZM12.5142 22.4873C13.6243 22.4873 14.5243 21.5874 14.5243 20.4773V15.7129C14.5243 15.3503 14.5511 14.9876 14.6586 14.7291C14.949 14.0055 15.6122 13.255 16.727 13.255C18.186 13.255 18.7686 14.3665 18.7686 15.9984V20.4718C18.7686 21.585 19.6709 22.4873 20.7841 22.4873C21.8972 22.4873 22.7996 21.585 22.7996 20.4718V15.5299C22.7996 11.8028 20.8118 10.0701 18.1591 10.0701C16.0202 10.0701 15.0615 11.2454 14.5243 12.0731V12.1055C14.5243 12.1108 14.52 12.115 14.5148 12.115C14.5073 12.115 14.5027 12.1067 14.5068 12.1004L14.5243 12.0731C14.5243 11.1254 13.7561 10.3572 12.8084 10.3572H12.5541C11.4319 10.3572 10.5123 11.2912 10.5154 12.4134C10.5216 14.6883 10.5111 18.2491 10.503 20.4714C10.4989 21.5851 11.4005 22.4873 12.5142 22.4873Z" fill="white"/>
</svg>
