<svg width="19" height="26" viewBox="0 0 19 26" fill="none" xmlns="http://www.w3.org/2000/svg">
<path d="M6.43359 1.30957C8.01152 0.846471 9.69897 0.904314 11.2412 1.47266C12.6929 2.00764 13.9409 2.96794 14.8223 4.2207V4.23438L14.998 4.49023C17.8813 8.68966 18.9219 16.7212 11.5869 24.2549C11.3751 24.472 11.0831 24.5993 10.7744 24.6045C10.6219 24.6071 10.4706 24.5796 10.3291 24.5244C10.1875 24.4691 10.0587 24.3862 9.9502 24.2822C9.84171 24.1783 9.75489 24.0549 9.69531 23.9189C9.63579 23.783 9.60409 23.6368 9.60156 23.4893C9.59717 23.2289 9.68429 22.9751 9.84766 22.7705L9.92285 22.6855C11.1848 21.3913 11.5191 19.8916 11.542 18.7529C11.5534 18.1858 11.4879 17.6985 11.4199 17.3506C11.3857 17.1758 11.3505 17.0329 11.3223 16.9307C11.3082 16.8797 11.2957 16.8383 11.2861 16.8076L11.2852 16.8057C11.2833 16.7989 11.2823 16.7919 11.2803 16.7852C11.2768 16.7735 11.2714 16.7623 11.2676 16.751L11.2666 16.749C11.1402 16.3772 10.8509 16.2194 10.7891 16.1865C10.6861 16.1318 10.5965 16.1073 10.5586 16.0977C10.4257 16.0639 10.2867 16.0583 10.2129 16.0557C10.0076 16.0482 9.6167 16.0498 8.8457 16.0742C7.48326 16.1173 6.13434 15.797 4.94043 15.1475C3.74661 14.4979 2.75228 13.5429 2.05957 12.3838C1.36688 11.2246 1.00082 9.9025 1 8.55664V8.55273L1.00488 8.24805C1.05936 6.73051 1.57731 5.26149 2.49512 4.03711C3.4743 2.73088 4.85587 1.77268 6.43359 1.30957ZM9.86426 16.1836L9.84766 16.1924C9.85135 16.1904 9.85489 16.1884 9.8584 16.1865L9.86426 16.1836Z" stroke="#FF7E70" stroke-width="2"/>
</svg>
