<svg width="38" height="29" viewBox="0 0 38 29" fill="none" xmlns="http://www.w3.org/2000/svg">
<path d="M35.1344 28.1075C35.1344 28.1075 37.4767 28.1075 37.4767 25.7652C37.4767 23.4229 35.1344 16.396 25.7652 16.396C16.396 16.396 14.0537 23.4229 14.0537 25.7652C14.0537 28.1075 16.396 28.1075 16.396 28.1075H35.1344ZM16.4476 25.7652L16.396 25.7558C16.3984 25.1375 16.7872 23.3433 18.1762 21.7271C19.4691 20.2116 21.7411 18.7383 25.7652 18.7383C29.7869 18.7383 32.0589 20.214 33.3542 21.7271C34.7432 23.3433 35.1297 25.1398 35.1344 25.7558L35.1156 25.7605L35.0828 25.7652H16.4476ZM25.7652 11.7115C27.0076 11.7115 28.1992 11.2179 29.0777 10.3394C29.9562 9.46084 30.4498 8.2693 30.4498 7.02687C30.4498 5.78444 29.9562 4.5929 29.0777 3.71437C28.1992 2.83584 27.0076 2.34229 25.7652 2.34229C24.5228 2.34229 23.3312 2.83584 22.4527 3.71437C21.5742 4.5929 21.0806 5.78444 21.0806 7.02687C21.0806 8.2693 21.5742 9.46084 22.4527 10.3394C23.3312 11.2179 24.5228 11.7115 25.7652 11.7115ZM32.7921 7.02687C32.7921 7.94965 32.6103 8.8634 32.2572 9.71594C31.904 10.5685 31.3865 11.3431 30.7339 11.9956C30.0814 12.6481 29.3068 13.1657 28.4543 13.5189C27.6017 13.872 26.688 14.0537 25.7652 14.0537C24.8424 14.0537 23.9287 13.872 23.0761 13.5189C22.2236 13.1657 21.449 12.6481 20.7964 11.9956C20.1439 11.3431 19.6263 10.5685 19.2732 9.71594C18.9201 8.8634 18.7383 7.94965 18.7383 7.02687C18.7383 5.16323 19.4787 3.37592 20.7964 2.05812C22.1142 0.740329 23.9016 0 25.7652 0C27.6288 0 29.4162 0.740329 30.7339 2.05812C32.0517 3.37592 32.7921 5.16323 32.7921 7.02687ZM16.2461 17.0519C15.3086 16.7589 14.343 16.565 13.3651 16.4733C12.8155 16.4197 12.2636 16.3939 11.7115 16.396C2.34229 16.396 0 23.4229 0 25.7652C0 27.3267 0.780763 28.1075 2.34229 28.1075H12.2174C11.8703 27.3762 11.6972 26.5745 11.7115 25.7652C11.7115 23.3995 12.5945 20.9822 14.2646 18.9632C14.8337 18.2746 15.4966 17.6304 16.2461 17.0519ZM11.5241 18.7383C10.1387 20.8217 9.38988 23.2633 9.36916 25.7652H2.34229C2.34229 25.1562 2.72643 23.3526 4.12243 21.7271C5.39898 20.2374 7.61713 18.7852 11.5241 18.7407V18.7383ZM3.51344 8.19802C3.51344 6.33438 4.25377 4.54706 5.57156 3.22927C6.88935 1.91147 8.67667 1.17115 10.5403 1.17115C12.4039 1.17115 14.1913 1.91147 15.5091 3.22927C16.8269 4.54706 17.5672 6.33438 17.5672 8.19802C17.5672 10.0617 16.8269 11.849 15.5091 13.1668C14.1913 14.4846 12.4039 15.2249 10.5403 15.2249C8.67667 15.2249 6.88935 14.4846 5.57156 13.1668C4.25377 11.849 3.51344 10.0617 3.51344 8.19802ZM10.5403 3.51344C9.29788 3.51344 8.10634 4.00699 7.22781 4.88552C6.34928 5.76405 5.85573 6.95559 5.85573 8.19802C5.85573 9.44045 6.34928 10.632 7.22781 11.5105C8.10634 12.389 9.29788 12.8826 10.5403 12.8826C11.7827 12.8826 12.9743 12.389 13.8528 11.5105C14.7313 10.632 15.2249 9.44045 15.2249 8.19802C15.2249 6.95559 14.7313 5.76405 13.8528 4.88552C12.9743 4.00699 11.7827 3.51344 10.5403 3.51344Z" fill="#FF7E70"/>
</svg>
