<svg width="35" height="35" viewBox="0 0 35 35" fill="none" xmlns="http://www.w3.org/2000/svg">
<path d="M7.99306 2.90516C7.86392 2.73904 7.70092 2.6023 7.51487 2.50402C7.32883 2.40575 7.12401 2.34818 6.914 2.33514C6.704 2.32211 6.49363 2.35391 6.29686 2.42842C6.10009 2.50294 5.92143 2.61847 5.77274 2.76734L3.51087 5.03141C2.45431 6.09016 2.06493 7.5886 2.52649 8.90328C4.44434 14.3438 7.56027 19.2839 11.644 23.3583C15.7184 27.442 20.6584 30.5579 26.099 32.4758C27.4137 32.9373 28.9121 32.548 29.9709 31.4914L32.2327 29.2295C32.3816 29.0808 32.4971 28.9022 32.5717 28.7054C32.6462 28.5086 32.678 28.2983 32.6649 28.0883C32.6519 27.8783 32.5943 27.6734 32.4961 27.4874C32.3978 27.3014 32.261 27.1384 32.0949 27.0092L27.0484 23.0848C26.8707 22.9475 26.6643 22.8521 26.4446 22.8059C26.2249 22.7597 25.9975 22.7638 25.7796 22.818L20.989 24.0145C20.3495 24.1733 19.6798 24.1643 19.0448 23.9884C18.4098 23.8125 17.831 23.4756 17.3643 23.0105L11.9918 17.6358C11.5263 17.1693 11.189 16.5906 11.0127 15.9556C10.8365 15.3206 10.8271 14.6508 10.9856 14.0111L12.1843 9.22047C12.2385 9.00256 12.2426 8.77522 12.1964 8.55549C12.1502 8.33576 12.0548 8.12934 11.9174 7.95172L7.99306 2.90516ZM4.12118 1.11797C4.50398 0.735047 4.96387 0.437942 5.4703 0.246385C5.97673 0.0548272 6.51812 -0.0268001 7.05852 0.00692305C7.59891 0.0406462 8.12595 0.188948 8.60464 0.441981C9.08333 0.695014 9.50271 1.04699 9.83493 1.47453L13.7593 6.51891C14.479 7.44422 14.7327 8.64953 14.4484 9.78703L13.2518 14.5777C13.1904 14.8258 13.1939 15.0856 13.2621 15.332C13.3303 15.5784 13.4609 15.803 13.6412 15.9842L19.0159 21.3589C19.1973 21.5396 19.4223 21.6703 19.6691 21.7385C19.9159 21.8068 20.1761 21.8101 20.4246 21.7483L25.2131 20.5517C25.7745 20.4122 26.3602 20.4017 26.9262 20.521C27.4923 20.6404 28.0239 20.8865 28.4812 21.2408L33.5256 25.1652C35.339 26.5761 35.5052 29.2558 33.8821 30.8767L31.6202 33.1386C30.0015 34.7573 27.5821 35.4683 25.3268 34.6742C19.5533 32.6455 14.3117 29.3406 9.99243 25.0055C5.65762 20.6868 2.3527 15.446 0.323682 9.67328C-0.468193 7.42016 0.242744 4.99859 1.86149 3.37984L4.12118 1.11797Z" fill="#FF7E70"/>
</svg>
