<svg width="161" height="160" viewBox="0 0 161 160" fill="none" xmlns="http://www.w3.org/2000/svg">
<path d="M45.3075 159.486C23.4831 157.231 4.79825 139.924 0.659804 118.133C-0.407585 112.512 -0.138655 100.965 1.1687 96.2821C5.24992 81.6626 13.603 71.0273 26.8139 63.6303C28.6035 62.6283 30.9674 61.5143 32.0672 61.1548C34.9888 60.1996 35.2488 60.8356 35.0534 68.4585L34.8893 74.8626L31.3361 77.218C21.2126 83.9286 15.6931 92.6469 14.1829 104.312C12.715 115.65 16.7096 126.911 25.0971 135.078C29.5503 139.414 34.1331 142.199 39.997 144.134C43.7591 145.376 45.0662 145.536 51.4146 145.536C57.7631 145.536 59.0702 145.376 62.8322 144.134C71.0399 141.426 78.0386 136.2 82.5598 129.404C83.9482 127.316 85.2757 125.476 85.5096 125.314C85.7436 125.152 88.9814 125.034 92.7049 125.051C99.2237 125.082 99.4808 125.125 99.638 126.218C99.7277 126.842 98.8578 129.209 97.7046 131.478C89.7116 147.206 74.3359 157.724 56.7205 159.515C53.7404 159.818 50.9092 160.034 50.429 159.996C49.9488 159.957 47.6442 159.728 45.3075 159.486ZM63.4329 154.806C69.0444 153.41 77.4298 149.223 81.8109 145.628C86.0828 142.124 90.6369 136.805 93.1398 132.397C94.1413 130.633 94.9608 129.035 94.9608 128.846C94.9608 128.657 93.2969 128.502 91.2632 128.502H87.5657L85.4594 131.527C79.794 139.663 71.9156 145.281 62.3012 148.04C56.2491 149.777 46.5802 149.777 40.5281 148.04C25.5932 143.754 13.9129 131.352 10.9838 116.669C10.1654 112.566 10.3285 103.447 11.2939 99.3302C12.4084 94.5777 16.1471 86.9437 19.2101 83.1663C21.6817 80.1182 26.6932 75.6966 29.6122 73.9884C31.1859 73.0676 31.2347 72.9235 31.2347 69.1963V65.3536L28.9777 66.4904C24.6337 68.6786 20.8445 71.5913 16.6308 75.9812C7.72112 85.2636 3.49556 95.7192 3.4838 108.512C3.47276 120.52 7.07231 130.315 14.9463 139.702C21.8346 147.913 33.5966 154.33 44.5431 155.847C49.4247 156.523 58.552 156.021 63.4329 154.806ZM105.688 154.174C105.265 153.755 105.051 151.474 105.051 147.391C105.051 140.997 105.365 140.148 107.44 140.937C108.653 141.398 108.613 154.024 107.397 154.486C106.328 154.892 106.433 154.911 105.688 154.174ZM127.749 139.744C125.196 137.232 123.106 134.866 123.106 134.488C123.106 134.109 123.601 133.537 124.206 133.217C125.185 132.697 125.838 133.154 130.18 137.391C134.349 141.46 134.97 142.285 134.467 143.085C134.144 143.6 133.544 144.086 133.135 144.166C132.726 144.246 130.302 142.256 127.749 139.744ZM131.335 117.45C131.153 117.158 131.155 116.448 131.339 115.872C131.649 114.904 132.15 114.825 137.946 114.825C144.484 114.825 145.822 115.255 145.097 117.125C144.816 117.851 143.775 117.981 138.216 117.981C134.383 117.981 131.529 117.761 131.335 117.45ZM74.9488 116.435C62.0722 111.843 51.2921 102.044 45.3377 89.5184C42.7932 84.1658 41.9767 80.965 42.8805 79.8861C43.8184 78.7666 46.9779 77.9862 50.787 77.9331C55.2786 77.8705 55.9273 78.1957 56.9838 81.0398C60.4882 90.4744 68.6996 98.8259 78.2325 102.651C81.5831 103.996 81.9605 104.3 82.3013 105.928C82.734 107.995 81.9756 114.881 81.1461 116.416C80.4392 117.725 78.581 117.731 74.9488 116.435ZM78.7658 110.068L79.1241 107.152L74.5709 104.917C65.4678 100.449 58.6544 93.5162 54.5473 84.5432C52.8746 80.8888 52.7411 80.8209 48.5758 81.5026C46.6219 81.8223 46.5477 81.9075 46.8626 83.4695C48.139 89.8023 55.5736 100.284 62.5667 105.611C67.5872 109.435 77.2016 114.24 78.0546 113.351C78.2487 113.149 78.5688 111.671 78.7658 110.068ZM110.24 114.49C110.112 113.951 110.028 110.752 110.052 107.382L110.096 101.255L114.057 98.4391C129.214 87.6651 134.17 67.9946 125.884 51.4978C123.891 47.5294 122.639 45.8767 118.644 41.9382C110.844 34.2493 102.976 30.9739 92.3055 30.9739C79.1252 30.9739 66.4049 37.9867 60.2678 48.6366L59.1149 50.6372L52.0618 50.6412C46.2028 50.6446 44.9557 50.5083 44.6953 49.8364C43.8907 47.7591 49.2023 38.823 54.7056 32.9952C61.0001 26.3297 70.3428 20.8541 79.5603 18.4284C83.3985 17.4184 85.3464 17.2469 92.5711 17.2832C102.526 17.3331 106.328 18.1469 114.482 21.9731C117.272 23.2823 119.615 24.2918 119.687 24.2164C119.76 24.141 121.189 19.3448 122.863 13.5581C124.536 7.77149 126.172 2.77427 126.497 2.4532C126.823 2.13213 130.282 1.44882 134.184 0.934724L141.279 0L151.14 9.76771L161 19.5354L160.126 26.5057C159.644 30.3559 158.948 33.7767 158.572 34.1477C158.197 34.5171 153.248 36.1431 147.574 37.761C141.9 39.3789 137.069 40.8181 136.839 40.9591C136.609 41.1001 137.353 43.0412 138.493 45.2728C142.34 52.8 143.938 59.6877 143.897 68.5609C143.813 86.7386 134.315 102.971 118.21 112.462C113.408 115.291 110.598 116.006 110.24 114.49ZM117.681 108.643C127.947 102.44 136.162 91.1849 139.116 79.2767C140.669 73.0182 140.774 63.646 139.354 58.0102C135.575 43.0091 126.609 31.8 113.282 25.4141C105.129 21.5076 100.194 20.496 90.7435 20.7942C84.3754 20.9952 82.2405 21.278 78.6361 22.398C67.1297 25.9735 57.0232 33.7109 51.2725 43.3472L49.2717 46.6999L53.1312 46.8604C56.3381 46.9938 57.0804 46.8674 57.5217 46.1124C58.8196 43.8916 63.6994 38.5918 66.5827 36.2714C70.6085 33.0315 78.1664 29.4155 83.2777 28.284C104.799 23.5195 126.543 36.6721 132.204 57.8792C133.56 62.9578 133.687 71.8077 132.483 77.3604C131.404 82.3405 127.528 90.0879 124.192 93.9344C121.256 97.3202 116.577 101.481 114.742 102.336C113.663 102.84 113.548 103.267 113.548 106.755C113.548 108.879 113.743 110.616 113.982 110.616C114.221 110.616 115.886 109.728 117.681 108.643ZM153.372 32.0767C153.376 31.5562 148.26 26.4467 147.734 26.4467C147.449 26.4467 134.074 34.7271 132.713 35.7461C132.593 35.8358 132.89 36.3413 133.372 36.8694C134.217 37.7941 134.602 37.7311 143.809 35.1629C149.067 33.6963 153.37 32.3075 153.372 32.0767ZM137.533 28.4755C141.299 26.1193 144.508 23.9862 144.665 23.7353C144.908 23.3454 137.834 15.9255 137.219 15.9255C137.099 15.9255 136.456 16.8132 135.79 17.8982C135.124 18.9832 133.074 22.1772 131.233 24.996C129.392 27.8147 127.886 30.2817 127.886 30.4782C127.886 31.0501 129.594 32.7594 130.165 32.7594C130.452 32.7594 133.768 30.8316 137.533 28.4755ZM156.807 24.0038C157.146 21.1017 157.062 20.632 155.981 19.4008C155.32 18.6467 154.522 18.0305 154.21 18.0316C153.898 18.0326 152.934 19.3342 152.068 20.924L150.494 23.8146L153.116 26.4518C156.105 29.458 156.174 29.4121 156.807 24.0038ZM129.798 20.7005C132.251 16.8361 134.259 13.4718 134.259 13.2243C134.259 12.3668 128.894 7.35173 128.482 7.82356C128.254 8.08429 126.919 12.3783 125.516 17.3658C123.4 24.8909 123.082 26.5722 123.647 27.2469C124.021 27.694 124.555 27.9849 124.832 27.8934C125.11 27.8018 127.344 24.565 129.798 20.7005ZM149.58 17.9948C150.5 16.5289 151.252 15.1409 151.252 14.9104C151.252 14.6799 150.068 13.3937 148.62 12.0523L145.988 9.61322L143.177 11.247C141.631 12.1456 140.259 12.9807 140.129 13.1029C139.862 13.3543 147.059 20.66 147.574 20.66C147.757 20.66 148.66 19.4606 149.58 17.9948ZM142.603 7.10283C142.754 6.73502 142.251 5.81295 141.484 5.05377C140.101 3.68396 140.062 3.67822 136.266 4.29917C134.162 4.64331 132.327 5.03821 132.187 5.17672C132.047 5.31522 133.095 6.59732 134.515 8.02582L137.098 10.6231L139.713 9.19734C141.152 8.41317 142.453 7.47063 142.603 7.10283ZM88.2902 98.1141C87.9803 97.9015 86.6204 95.4787 85.2683 92.73C81.2372 84.5355 76.0693 79.2688 68.214 75.3498C65.9166 74.2037 63.7145 73.2659 63.3205 73.2659C62.1182 73.2659 61.5021 71.3956 61.5556 67.9084C61.6286 63.1469 62.6024 59.3836 63.8216 59.151C64.3633 59.0476 66.6325 59.613 68.8643 60.4073C83.5951 65.6501 95.7044 77.8268 100.288 92.0055C100.954 94.0663 101.359 96.1146 101.187 96.5571C100.62 98.0223 90.0218 99.3017 88.2902 98.1141ZM96.8768 93.1458C96.3762 90.6662 92.9599 84.0687 90.3761 80.5919C87.4012 76.5888 82.7054 72.0564 78.836 69.4534C74.8197 66.7516 66.9683 63.1 65.9818 63.475C65.4407 63.6806 65.2219 64.6631 65.2219 66.8871V70.0104L68.75 71.6458C77.058 75.4971 83.8072 81.9397 87.9415 89.9658L90.4468 94.8295L93.8323 94.8314L97.2177 94.8334L96.8768 93.1458ZM6.11161 55.5374C5.42883 55.3622 5.19864 54.8857 5.31504 53.8887L5.47873 52.4866H12.1096C18.2427 52.4866 18.7553 52.5629 18.9382 53.5039C19.2929 55.3282 17.6039 55.9105 12.1481 55.8449C9.3562 55.8113 6.63976 55.673 6.11161 55.5374ZM19.9456 32.9541C17.3923 30.4418 15.3032 28.2035 15.3032 27.9801C15.3032 27.7567 15.6782 27.2024 16.1366 26.7483C17.2606 25.6349 17.9063 26.0492 22.9969 31.1506C26.5741 34.7354 27.1477 35.5449 26.6574 36.3162C26.3375 36.8193 25.7411 37.2964 25.332 37.3764C24.9228 37.4565 22.499 35.4664 19.9456 32.9541ZM42.0862 28.9133C41.9393 28.5339 41.887 25.5185 41.9701 22.2123C42.1052 16.8406 42.2261 16.1812 43.107 16.014C43.6491 15.911 44.3203 16.0522 44.5985 16.3278C45.1758 16.8997 45.3645 28.1344 44.8117 29.0205C44.3085 29.8271 42.4113 29.7525 42.0862 28.9133Z" fill="#FF7E70"/>
</svg>
