<svg width="137" height="134" viewBox="0 0 137 134" fill="none" xmlns="http://www.w3.org/2000/svg">
<path d="M27.7631 129.541C28.1615 128.855 28.4234 128.441 28.5824 128.204C28.7414 127.966 29.4715 126.837 29.9307 126.164C30.1202 125.886 30.2432 125.752 30.5113 125.338C30.7794 124.924 31.12 124.45 31.268 124.283C31.416 124.116 31.6683 123.804 31.8287 123.589C31.989 123.374 32.2894 123.015 32.4963 122.79C34.3797 120.746 35.2366 119.852 35.8649 119.276C36.2695 118.905 36.8713 118.324 37.3929 117.868C38.028 117.313 38.6874 116.785 39.3416 116.252C39.6155 116.029 39.8858 115.801 40.169 115.589C40.5477 115.307 40.9428 115.046 41.3337 114.78C41.7949 114.466 42.2602 114.159 42.7266 113.852C42.9263 113.721 43.0532 113.633 43.3284 113.463C43.6035 113.293 44.2626 112.911 44.3827 112.839C44.5027 112.767 46.486 111.711 47.5482 111.167C48.0551 110.907 48.5621 110.647 49.0787 110.407C49.7616 110.09 50.7792 109.654 51.1516 109.508C51.5239 109.362 51.964 109.189 52.1295 109.124C52.2949 109.058 52.7011 108.923 53.0321 108.824C53.3631 108.726 53.9724 108.531 54.3861 108.391L55.1384 108.137L55.1822 107.113L55.226 106.088L54.3883 105.701C53.9275 105.488 53.4508 105.314 53.329 105.314C53.2071 105.314 53.1074 105.248 53.1074 105.167C53.1074 105.086 52.9777 105.02 52.8191 105.02C52.6605 105.02 52.5081 104.971 52.4806 104.91C52.453 104.849 51.9057 104.542 51.2645 104.226C50.6232 103.911 50.0985 103.597 50.0985 103.529C50.0985 103.461 49.9759 103.405 49.826 103.405C49.6761 103.405 49.4206 103.289 49.2582 103.148C49.0958 103.007 48.3676 102.502 47.6398 102.026C46.9121 101.551 46.2362 101.088 46.1379 100.998C46.0396 100.909 45.584 100.528 45.1255 100.152C44.0151 99.2416 41.7102 97.0101 41.147 96.3001C40.8987 95.9871 40.4772 95.492 40.2102 95.1999C39.9432 94.9077 39.7232 94.6238 39.7212 94.569C39.7197 94.5142 39.6317 94.382 39.5266 94.2753C39.1362 93.879 38.2133 92.568 38.2133 92.4098C38.2133 92.3196 38.1456 92.2459 38.0628 92.2459C37.9801 92.2459 37.9124 92.1523 37.9124 92.0379C37.9124 91.9235 37.8606 91.8079 37.7972 91.7809C37.2688 91.5565 34.1512 85.0276 34.1512 84.1455C34.1512 84.0071 34.0911 83.8575 34.0174 83.8131C33.9438 83.7688 33.8493 83.5171 33.8074 83.2538C33.7379 82.8173 33.3516 81.2408 32.925 79.6526C32.7875 79.1407 32.6572 78.9837 32.2128 78.7943C31.4276 78.4598 29.5758 77.5328 29.4874 77.43C29.446 77.3819 29.2353 77.2434 29.0192 77.1223C28.6307 76.9046 27.3335 75.864 26.72 75.278C26.2288 74.8087 24.9146 73.3023 24.7612 73.0326C24.6856 72.8996 24.584 72.7577 24.5356 72.7173C24.3258 72.5425 23.324 70.6492 22.8651 69.5605C22.5645 68.8472 22.266 67.7881 22.266 67.4346C22.266 67.2229 22.1914 66.9768 22.1002 66.8878C21.8662 66.6594 21.8352 61.9169 22.064 61.3379C22.1597 61.0957 22.3629 60.485 22.5153 59.981C22.6678 59.477 22.8434 59.064 22.9054 59.0633C22.9675 59.0626 23.0183 58.9299 23.0183 58.7684C23.0183 58.6069 23.086 58.4747 23.1687 58.4747C23.2515 58.4747 23.3192 58.3756 23.3192 58.2545C23.3192 58.1333 23.3715 58.0342 23.4354 58.0342C23.4994 58.0342 23.6725 57.8153 23.8201 57.5477C24.2356 56.7948 26.2745 54.8039 26.6301 54.8039C26.7122 54.8039 26.7794 54.7486 26.7794 54.681C26.7794 54.6133 27.3041 54.3075 27.9454 54.0012C28.5867 53.695 29.2203 53.3921 29.3536 53.3282C29.4868 53.2643 30.1638 53.0947 30.858 52.9515C31.5522 52.8082 32.17 52.6213 32.2308 52.5361C32.2916 52.4509 32.3431 51.8526 32.3453 51.2066C32.3505 49.6304 32.4675 49.0344 32.8531 48.6187C33.741 47.6615 34.7632 47.6498 35.7976 48.585L36.1823 48.9329L36.2287 51.9641C36.2794 55.2735 36.2156 55.6318 35.4858 56.139C35.1489 56.3731 34.6836 56.4658 33.3556 56.5636C31.4157 56.7064 30.2319 57.0542 29.1113 57.8106C27.763 58.7208 27.3148 59.2219 26.6239 60.5916C26.0195 61.7897 25.8334 62.6104 25.8385 64.0543C25.8564 69.134 29.3963 73.8333 34.4223 75.4494C34.8111 75.5744 35.3034 75.7486 35.5163 75.8366C36.0745 76.067 36.5584 76.8636 36.5584 77.5521C36.5584 77.8715 36.6261 78.1736 36.7088 78.2235C36.7916 78.2734 36.8593 78.5716 36.8593 78.886C36.8593 79.2005 36.9214 79.6096 36.9973 79.7951C37.0732 79.9806 37.2594 80.6773 37.411 81.3434C37.5626 82.0095 37.7375 82.5546 37.7995 82.5547C37.8616 82.5549 37.9124 82.7211 37.9124 82.9241C37.9124 83.1271 37.9733 83.4079 38.0478 83.5482C38.1223 83.6884 38.3698 84.2656 38.5978 84.8309C39.1165 86.1169 39.8917 87.7438 40.032 87.841C40.0903 87.8814 40.2626 88.1952 40.4147 88.5384C40.5669 88.8816 40.7431 89.1625 40.8063 89.1625C40.8695 89.1625 40.9213 89.2299 40.9213 89.3124C40.9213 89.4907 41.6993 90.6827 41.8616 90.7531C41.9236 90.7801 41.9744 90.8654 41.9744 90.9429C41.9744 91.0203 42.043 91.1635 42.1269 91.261C42.6316 91.8481 43.3257 92.7753 43.327 92.864C43.3292 93.0316 47.3935 96.9778 48.2179 97.613C48.6316 97.9318 48.9927 98.2421 49.0203 98.3027C49.0479 98.3633 49.1354 98.4128 49.2147 98.4128C49.294 98.4128 49.4407 98.4802 49.5407 98.5625C50.3635 99.2405 50.6466 99.4403 50.7847 99.4405C50.8726 99.4406 51.0789 99.5629 51.2432 99.7123C51.4075 99.8617 52.0465 100.242 52.6632 100.557C53.2798 100.872 53.807 101.179 53.8346 101.239C53.8622 101.3 53.9811 101.349 54.0989 101.349C54.2168 101.349 54.6342 101.507 55.0267 101.699C55.803 102.079 56.0578 102.185 57.3521 102.672C59.0569 103.312 59.1757 103.559 59.295 106.709C59.347 108.082 59.4577 109.493 59.5411 109.845C59.6893 110.471 60.687 112.533 60.999 112.859C61.0855 112.949 61.3509 113.277 61.5887 113.587C62.0415 114.179 63.8786 115.586 64.2028 115.59C64.3062 115.591 64.3908 115.642 64.3908 115.703C64.3908 115.807 64.8022 115.97 66.0457 116.358C66.8311 116.603 69.9176 116.674 70.6343 116.464C71.8887 116.097 72.6033 115.824 72.9895 115.566C73.2091 115.419 73.4283 115.298 73.4767 115.298C73.6912 115.298 75.8247 113.37 75.8247 113.176C75.8247 113.125 75.9432 112.959 76.088 112.806C76.2328 112.653 76.486 112.276 76.6507 111.968C76.8154 111.66 76.9915 111.374 77.042 111.334C77.0926 111.294 77.1725 111.095 77.2198 110.893C77.267 110.692 77.4101 110.13 77.5377 109.645C77.6894 109.069 77.7716 108.072 77.7751 106.764C77.7782 105.664 77.8225 104.558 77.8739 104.308C78.0087 103.65 78.654 103.067 79.6735 102.684C81.3583 101.942 83.1705 101.436 84.7936 100.567C86.3123 99.7517 87.7321 98.7038 89.0391 97.567C90.9681 95.6831 92.9516 93.8362 94.6652 91.7574C95.4483 90.8075 96.1125 89.8322 96.7777 88.7309C97.2949 87.8745 97.7143 87.026 98.0615 86.1598C98.3723 85.3844 98.8669 83.8563 98.9765 83.4727C99.0861 83.0891 99.3379 82.2887 99.5359 81.6941C99.7289 81.1146 100.012 79.8274 100.197 78.8828C100.289 78.4116 100.297 77.9281 100.419 77.4598C100.681 76.4594 101.3 75.8348 102.325 75.5373C104.31 74.9613 105.434 74.153 106.591 73.305C108.49 71.9123 110.013 69.1671 110.202 68.6428C110.877 67.235 111.175 65.5432 111.216 63.9809C111.225 63.175 111.073 62.0901 110.886 61.6316C110.549 60.802 109.884 59.6876 109.667 59.3813C109.303 58.8666 109.03 58.6582 108.545 58.2573C107.92 57.725 106.839 57.1464 105.879 56.8436C105.157 56.616 104.594 56.6384 103.624 56.5634C102.654 56.4884 102.159 56.5878 101.555 56.2409C101.294 56.0906 101.131 55.8229 100.987 55.5395C100.751 55.0788 100.747 53.8953 100.665 47.6599C100.568 40.2286 100.426 39.3985 99.1702 35.5151C98.0573 32.0736 96.2223 28.8809 93.936 25.9965C92.88 24.6644 90.06 21.776 89.8086 21.7692C89.3131 23.3297 89.1501 24.8742 88.6903 26.5389C88.4761 27.4018 87.8801 28.7801 87.8801 28.7801C87.6871 29.1566 87.1702 30.2729 86.7431 30.9794C86.3115 31.6932 85.7917 32.3507 85.3082 33.031C84.2865 34.3485 83.0382 35.524 81.757 36.5994C80.6038 37.4834 80.0494 37.747 79.1694 38.2797C78.8627 38.4654 78.5494 38.6406 78.2319 38.8075C77.9602 38.9504 77.8181 39.0347 77.4044 39.2125C75.7887 39.9071 75.9095 39.7482 75.8178 41.3004C75.7314 42.7634 75.711 42.8447 75.1348 44.0119C74.8066 44.6769 74.555 45.0196 73.7339 45.9207C73.322 46.3727 72.6798 46.8751 72.5138 46.8751C72.4316 46.8751 72.3645 46.9411 72.3645 47.0219C72.3645 47.1027 72.2291 47.1687 72.0636 47.1687C71.8981 47.1687 71.7627 47.2243 71.7627 47.2923C71.7627 47.4219 70.5649 47.7763 69.2702 48.0297C68.5279 48.1751 68.3381 48.1559 66.5409 47.7549C65.7564 47.5798 64.6917 47.1378 64.6917 46.9873C64.6917 46.9255 64.6212 46.8751 64.5349 46.8751C64.1809 46.8751 62.2846 45.0182 62.2846 44.6715C62.2846 44.5913 62.2248 44.5258 62.1517 44.5258C62.0786 44.5258 61.9828 44.4101 61.9387 44.2688C61.8947 44.1275 61.7053 43.6484 61.5179 43.2043C61.2032 42.4583 61.1776 42.1783 61.1818 39.5335C61.1855 37.0391 61.2292 36.519 61.5192 35.4956C61.7023 34.8496 61.9494 34.1291 62.0683 33.8946C62.1873 33.6602 62.2846 33.4159 62.2846 33.3519C62.2846 33.225 63.3328 31.4303 63.4766 31.311C63.5253 31.2706 63.7646 30.9732 64.0084 30.6502C64.5003 29.9984 65.2467 29.2807 66.0457 28.6911C66.3354 28.4774 66.6067 28.2581 66.6487 28.2037C66.788 28.0236 68.6286 27.0528 68.8309 27.0528C68.9402 27.0528 69.0521 27.0033 69.0797 26.9427C69.1073 26.8821 69.5022 26.7112 69.9573 26.5629C71.0192 26.2167 72.0636 25.7202 72.0636 25.5615C72.0636 25.4934 72.1361 25.4377 72.2248 25.4377C72.3134 25.4377 72.4814 25.3445 72.5982 25.2306C72.7149 25.1166 72.8649 25.001 72.9316 24.9736C73.1787 24.872 74.4707 22.818 74.4707 22.5267C74.4707 22.3606 74.5384 22.1839 74.6211 22.134C74.8188 22.0148 74.8188 19.023 74.6211 18.9037C74.5384 18.8538 74.4707 18.6517 74.4707 18.4546C74.4707 18.2574 74.403 18.0961 74.3203 18.0961C74.2375 18.0961 74.1698 17.9947 74.1698 17.8707C74.1698 17.3425 72.6889 15.7033 71.7627 15.2063C70.5174 14.538 69.8642 14.3967 68.2618 14.449C66.9351 14.4922 66.5982 14.5577 65.8201 14.9237C64.7162 15.4428 63.2228 16.8831 62.8333 17.8041C62.68 18.1666 62.4938 18.578 62.4196 18.7182C62.3454 18.8584 62.2833 19.2879 62.2816 19.6726C62.2786 20.3954 61.9657 22.2416 61.7151 23.015C61.5437 23.5444 60.9944 24.5155 60.7086 24.7944C60.5952 24.9051 60.3787 25.1455 60.2275 25.3287C59.8474 25.7893 58.605 26.7592 58.3951 26.7592C58.3002 26.7592 58.2225 26.8252 58.2225 26.906C58.2225 26.9868 58.0872 27.0528 57.9217 27.0528C57.7562 27.0528 57.6208 27.1114 57.6208 27.183C57.6208 27.3132 57.512 27.3429 55.9659 27.6348C55.0772 27.8025 52.8065 27.6872 52.8065 27.4744C52.8065 27.4041 52.6767 27.3465 52.5181 27.3465C51.9654 27.3465 50.1965 26.2944 49.4726 25.5351C49.075 25.1181 48.7486 24.6944 48.7471 24.5934C48.7456 24.4925 48.6887 24.4099 48.6204 24.4099C48.4595 24.4099 47.6914 22.7872 47.6914 22.4472C47.6914 22.3038 47.5879 22.0855 47.4615 21.9621C47.2671 21.7723 47.1923 21.7683 46.9762 21.9359C46.5413 22.2732 44.6824 24.1012 44.6824 24.1916C44.6824 24.2386 44.3609 24.5998 43.9678 24.9943C43.1755 25.7895 42.2753 26.9334 42.2753 27.1449C42.2753 27.2201 42.1399 27.3769 41.9744 27.4933C41.8089 27.6098 41.6735 27.7536 41.6735 27.8129C41.6735 27.9084 41.1201 28.7864 40.8106 29.182C38.4626 32.1839 36.2955 41.6458 36.1926 41.851C35.9564 42.5772 34.4797 42.839 33.6029 42.3102C32.8971 41.8845 32.7501 41.5382 32.7725 40.3548C32.7936 39.2393 33.5564 35.5799 34.4623 33.3666C34.9206 32.2467 35.3336 31.1028 35.9006 30.0329C37.1172 27.7372 38.4082 25.521 40.0907 23.4555C40.42 23.0517 40.7585 22.6504 40.843 22.5638C40.9274 22.4771 41.1996 22.1532 41.4478 21.8441C41.9755 21.1869 43.6187 19.5786 44.5553 18.8026C44.9148 18.5047 45.3627 18.1324 45.5506 17.9752C45.7385 17.8179 46.1274 17.5331 46.4147 17.3421C47.1486 16.758 47.8625 16.3082 48.0549 15.2943C48.5439 13.2163 49.5416 11.4527 50.6265 9.53333C50.9789 9.05979 52.0317 7.6175 52.2799 7.309C54.0147 5.15317 56.3997 3.54716 58.0345 2.6003C58.7878 2.16399 59.5289 1.79111 60.3813 1.45144C64.0042 -0.125034 68.0198 -0.187183 71.9883 0.196441C72.7109 0.269524 73.4349 0.378508 74.1336 0.575453C75.4174 0.937348 76.578 1.41901 77.8557 2.03939C79.4045 2.66236 81.6665 3.90288 80.1643 5.77921C79.2965 6.68093 77.5701 6.18901 76.5017 5.69864C75.1169 5.06308 74.1602 4.72371 73.7561 4.54742C73.3313 4.38931 72.9482 4.30457 72.4397 4.20408C68.7317 3.47133 65.7047 3.59325 63.3001 4.54742C61.1632 5.39535 59.4879 5.85868 57.2539 7.85467C57.0597 8.03638 56.6906 8.34527 56.4259 8.60808C56.1185 8.91324 55.83 9.23682 55.5448 9.56249C55.2887 9.85491 55.0308 10.1471 54.7999 10.4594C54.3201 11.1085 53.8519 11.7633 53.4731 12.484C52.1632 14.6 51.5555 17.1393 51.4525 19.6334C51.4525 21.2112 51.4957 21.5411 51.7651 22.0194C52.4472 23.2307 53.3421 23.7481 54.7562 23.7487C55.5089 23.749 55.926 23.665 56.4268 23.4121C58.069 22.5829 58.2225 20.8202 58.2225 20.1903C58.2225 19.5749 58.2841 18.8685 58.3594 18.6205C58.4347 18.3725 58.5756 17.9053 58.6725 17.5822C59.3448 15.3418 61.0877 12.2945 65.5944 10.8868C67.1923 10.3877 69.8558 10.381 71.3866 10.8724C72.707 11.2962 73.8516 11.8283 74.2792 12.2171C77.2479 14.3161 78.8224 17.4574 78.7868 21.1165C78.6522 23.1843 77.8729 24.8495 76.6944 26.5757C76.4121 27.0348 75.5652 27.9043 74.9565 28.3598C73.7152 29.2887 72.5839 29.8559 71.4244 30.2003C69.4975 30.7726 67.1294 32.2256 65.5761 35.7893C65.1018 36.8774 65.1239 37.5976 65.0417 39.306C64.9387 41.448 65.2056 42.2813 66.3219 43.3027C66.8089 43.7483 67.9807 44.2346 68.5564 44.2299C69.8632 44.2193 71.6616 43.5554 71.9165 40.0747C72.0023 38.9026 72.1537 37.8815 72.2756 37.6529C72.6635 36.925 73.1346 36.7043 74.4707 36.1938C75.5199 35.7929 76.6865 35.2733 77.7169 34.6344C78.9204 33.8882 78.4891 34.0857 79.206 33.5868C79.7449 33.2118 81.524 31.474 81.9178 30.9379C82.0833 30.7127 82.2512 30.547 82.4067 30.3428C82.4726 30.2563 82.5356 30.1674 82.5948 30.0762C82.7816 29.7884 82.9525 29.4904 83.1213 29.1918C83.5109 28.5029 83.8731 27.8875 84.2435 27.0999C85.2541 24.9601 85.4726 22.7956 85.4874 20.4455C85.4912 17.3599 85.4484 16.3279 83.4602 12.2706C83.1044 11.5444 83.0357 11.252 83.1155 10.8023C83.2417 10.0915 83.6236 9.6362 84.3382 9.3448C85.4967 8.87237 86.5417 9.51774 87.3342 11.1951C88.1783 12.644 88.5411 14.2841 89.0652 15.8637C89.4323 16.4301 90.0783 16.9486 90.6536 17.3502C90.9476 17.5456 91.438 17.9321 91.7433 18.2089C92.0487 18.4858 92.5057 18.8693 92.7589 19.0611C93.4606 19.5928 94.6484 20.7512 95.3129 21.552C95.9682 22.3032 96.6059 23.0125 97.2287 23.8488C97.3181 23.9688 97.7645 24.5083 98.016 24.8504C98.4883 25.493 98.9471 26.1467 99.3695 26.8227C99.6001 27.1918 99.7574 27.4634 100.013 27.9583C100.119 28.1646 101.575 31.0412 102.254 32.6281C102.435 33.0512 102.598 33.4977 102.742 33.9192C102.886 34.1867 103.377 35.7656 103.665 36.8905C103.867 37.6779 104.053 39.044 104.246 40.1208C104.316 40.5123 104.414 40.9 104.455 41.2955C104.725 43.8662 104.704 45.2106 104.707 49.0454C104.71 51.7685 104.755 52.6236 104.898 52.6653C105.002 52.6954 105.783 52.8366 106.215 52.9623C107.212 53.2525 108.233 53.5238 109.148 54.0145C110.114 54.5329 111.027 55.1867 111.781 55.9786C112.972 57.2286 113.392 57.6483 114.666 60.2714C115.025 61.0095 115.427 64.0786 114.96 66.7378C114.839 67.4227 114.642 67.965 114.452 68.5694C114.288 69.0904 114.126 69.6147 113.905 70.1148C113.686 70.6122 113.261 71.3256 113.136 71.5537C111.634 74.2779 107.737 77.2434 107.544 77.3867C106.874 77.7837 106.266 78.1804 105.411 78.5619C104.77 78.8479 103.974 79.3502 103.964 80.0838C103.878 81.3414 103.385 82.5024 103.001 83.6838C102.611 84.6931 102.35 85.778 101.912 86.7724C101.696 87.239 101.382 87.9181 101.214 88.2815C100.789 89.2023 100.464 89.7606 100.059 90.4839C99.9354 90.7037 99.8027 90.918 99.6707 91.1327C99.2772 91.7731 98.9582 92.4404 98.467 93.0396C98.0619 93.6643 97.5756 94.2231 97.1186 94.8156C96.8734 95.1385 96.6026 95.4776 96.5168 95.5691C96.4311 95.6605 96.1444 95.9958 95.8798 96.3142C94.2933 98.2445 92.5829 99.584 90.7896 101.056C90.5632 101.242 90.3195 101.406 90.0766 101.57C89.8108 101.749 89.5357 101.915 89.2629 102.084C88.0129 102.857 86.6862 103.687 85.4912 104.368C84.9204 104.72 84.2591 105.033 83.6316 105.343C83.0692 105.62 82.1856 105.881 81.9248 106.136C81.7726 106.284 81.6925 106.637 81.6925 107.156C81.6925 108.07 82.4857 108.346 83.1217 108.546C84.7065 108.994 86.2648 109.583 87.7414 110.312C88.531 110.766 88.6507 111.36 88.613 111.988C88.5709 112.687 88.0334 113.374 87.4239 113.729C87.0392 113.953 86.5151 113.979 86.091 113.842C85.3706 113.61 84.6247 113.232 83.8828 112.949C83.5831 112.835 83.2965 112.739 82.9768 112.624C82.3757 112.407 81.63 112.137 81.1567 112.022C81.0922 112.007 80.7969 112.481 80.5542 112.986C80.3114 113.491 80.2659 113.675 80.081 113.998C79.872 114.364 79.6503 114.73 79.3661 115.041C77.8502 116.705 75.3793 118.817 74.1702 119.365C73.4591 119.688 71.9876 120.171 71.2365 120.328C70.2647 120.532 66.7922 120.532 65.8204 120.328C63.3304 119.806 61.1126 118.607 59.2689 116.787C58.1521 115.684 57.816 115.057 57.1698 114.134C56.7059 113.471 56.3802 112.8 55.8982 112.068C55.7617 111.861 55.1077 112.188 53.5235 112.805C51.9394 113.423 48.8092 114.717 46.5532 116.106C45.6409 116.552 44.841 117.162 44.0058 117.721C43.6007 117.992 43.204 118.276 42.8115 118.565C42.115 119.078 41.4323 119.605 40.7526 120.144C39.9181 120.801 36.2776 124.366 35.8817 124.913C35.7162 125.141 35.4004 125.475 35.1671 125.762C35.026 125.935 34.8917 126.114 34.7527 126.29C34.6031 126.478 34.4461 126.661 34.3013 126.853C33.9098 127.373 33.5429 127.911 33.1737 128.447C32.9438 128.781 32.4967 129.411 32.4967 129.457C32.4967 129.503 48.711 129.541 68.5285 129.541C92.4493 129.541 104.608 129.479 104.56 129.394C104.402 129.112 104.262 128.973 104.111 128.764C103.624 128.087 103.15 127.401 102.642 126.741C102.315 126.315 101.985 125.891 101.627 125.493C100.084 123.778 98.3854 121.994 96.748 120.584C96.1384 120.059 95.5649 119.564 95.4737 119.483C95.3824 119.402 94.8243 118.982 94.2334 118.549C93.0482 117.68 92.8254 117.344 92.8256 116.429C92.8259 115.533 93.7779 114.564 94.6591 114.564C95.7156 114.65 96.3331 115.322 97.1101 115.865C97.3969 116.056 97.8195 116.374 98.0493 116.573C98.2791 116.772 98.7041 117.111 98.9937 117.327C100.04 118.106 103.654 121.743 104.812 123.181C105.046 123.471 105.306 123.782 105.39 123.872C105.601 124.096 107.547 126.661 107.884 127.145C108.246 127.664 108.61 128.238 108.935 128.808C109.212 129.295 109.473 129.792 109.7 130.304C109.839 130.618 109.992 130.903 110.064 131.266V133H79.3661H50.0985C44.1694 133.096 33.3846 132.783 27.7631 133C27.7631 133 27.037 130.792 27.7631 129.541ZM65.3687 90.6997C63.9833 90.0021 63.9689 88.0479 65.3437 87.2955C65.5662 87.1738 66.569 87.1156 68.5048 87.112C71.7549 87.106 72.0017 87.1753 72.513 88.237C72.6795 88.5827 72.8158 88.9331 72.8158 89.0156C72.8158 89.342 72.1691 90.4839 71.9843 90.4839C71.8762 90.4839 71.7596 90.5665 71.7252 90.6675C71.6787 90.8041 70.9165 90.8607 68.7414 90.889C66.3437 90.9202 65.7391 90.886 65.3687 90.6997ZM50.9259 74.9108C49.2688 74.583 49.2373 74.5726 47.917 73.9186C46.7599 73.3455 46.1674 73.0124 45.9625 72.8198C45.5198 72.4035 44.9726 71.9829 44.8693 71.9796C44.8078 71.9773 44.6391 71.7436 44.4943 71.4596C44.1692 70.822 44.149 69.735 44.4567 69.4346C44.5808 69.3135 44.6824 69.1507 44.6824 69.073C44.6824 68.9952 44.9646 68.8214 45.3095 68.6867C46.0975 68.379 46.9674 68.5002 47.4665 68.9873C47.6653 69.1814 47.8679 69.3402 47.9167 69.3402C47.9654 69.3402 48.1823 69.5004 48.3986 69.6961C48.7509 70.015 49.6455 70.4967 50.4745 70.8141C51.1919 71.0887 52.7036 71.2789 53.5124 71.1964C54.9156 71.0532 55.5145 70.9324 55.5145 70.7925C55.5145 70.7206 55.6837 70.6617 55.8906 70.6617C56.0974 70.6617 56.2667 70.5956 56.2667 70.5149C56.2667 70.4341 56.4021 70.368 56.5676 70.368C56.7331 70.368 56.8685 70.3064 56.8685 70.2311C56.8685 70.1558 56.9897 70.0566 57.138 70.0107C57.2862 69.9648 57.7085 69.6613 58.0765 69.3363C59.5228 68.0588 61.2319 68.3284 61.6777 69.9043C61.9652 70.9204 61.4576 71.8464 60.1357 72.7173C59.8292 72.9192 59.5781 73.134 59.5775 73.1945C59.577 73.2551 59.4467 73.3047 59.2881 73.3047C59.1295 73.3047 58.9772 73.3548 58.9496 73.4161C58.878 73.5753 57.3334 74.3325 57.0803 74.3325C56.9638 74.3325 56.8685 74.3916 56.8685 74.4639C56.8685 74.5362 56.6146 74.631 56.3043 74.6747C55.994 74.7183 55.4016 74.8204 54.9879 74.9016C54.1023 75.0753 51.7839 75.0806 50.9259 74.9108ZM81.9929 74.9041C81.6206 74.8237 81.062 74.7213 80.7517 74.6765C80.4415 74.6317 80.1876 74.5502 80.1876 74.4956C80.1876 74.441 79.8792 74.3074 79.5023 74.1987C79.1253 74.0901 78.7361 73.927 78.6372 73.8363C78.5383 73.7456 78.2543 73.5724 78.0061 73.4514C77.7579 73.3304 77.5209 73.1982 77.4796 73.1577C77.4382 73.1172 77.0658 72.8211 76.6521 72.4998C75.6809 71.7453 75.6304 71.6928 75.4092 71.205C75.1859 70.713 75.1613 69.6335 75.3733 69.6335C75.4561 69.6335 75.5238 69.5392 75.5238 69.4239C75.5238 69.1025 76.219 68.6409 76.8631 68.5347C77.5766 68.4171 78.2559 68.677 79.0102 69.3561C79.4969 69.7944 80.7325 70.4842 81.6169 70.8114C82.9417 71.3015 84.2641 71.3667 85.6789 71.0117C86.1754 70.8872 86.7339 70.7497 86.9201 70.7062C87.1062 70.6627 87.2586 70.582 87.2586 70.5269C87.2586 70.4717 87.4786 70.3486 87.7475 70.2532C88.0164 70.1578 88.4197 69.9133 88.6436 69.7098C88.8676 69.5063 89.1142 69.3399 89.1917 69.3399C89.2692 69.3399 89.3727 69.2378 89.4218 69.113C89.4709 68.9882 89.7575 68.7856 90.0588 68.6627C90.8498 68.3401 91.6671 68.5132 92.3084 69.139C92.7514 69.5714 92.8249 69.742 92.8241 70.3359C92.8233 71.1277 92.5746 71.5586 91.6981 72.2896C91.3679 72.565 90.9658 72.906 90.8047 73.0473C90.6435 73.1887 90.4632 73.3043 90.404 73.3043C90.3448 73.3043 89.9006 73.5209 89.4169 73.7857C88.9331 74.0505 88.2327 74.3548 87.8603 74.4618C87.488 74.5688 87.0155 74.721 86.8103 74.8001C86.282 75.0037 82.8026 75.0788 81.9929 74.9041ZM32.9967 70.4406C32.0067 70.1215 31.4445 69.315 31.4409 68.2092C31.4379 67.2718 30.799 65.6296 30.1953 65.0077C29.4718 64.2624 29.4122 64.1229 29.4154 63.1841C29.4177 62.5715 29.4835 62.2198 29.6035 62.1808C29.7051 62.1477 29.7883 62.0271 29.7883 61.9126C29.7883 61.7982 29.8842 61.7046 30.0014 61.7046C30.1186 61.7046 30.2371 61.6449 30.2647 61.572C30.3154 61.4378 31.035 61.3506 31.7687 61.3896C32.3061 61.4182 33.5012 62.5708 34.0005 63.5421C34.1245 63.7832 34.2618 64.0136 34.3055 64.0539C34.4251 64.1642 34.8651 65.2321 35.0316 65.8159C35.5462 67.6209 35.6417 68.8119 35.3171 69.3786C34.8426 70.2072 33.7806 70.6933 32.9967 70.4406ZM102.679 70.3258C102.348 70.1438 102.011 69.8476 101.929 69.6674C101.847 69.4873 101.729 69.3399 101.666 69.3399C101.507 69.3399 101.521 67.4236 101.684 66.9024C101.757 66.6682 101.902 66.1793 102.007 65.8159C102.232 65.0373 102.918 63.5612 103.087 63.4911C103.152 63.4641 103.206 63.3788 103.206 63.3013C103.206 63.1407 103.332 62.9854 104.218 62.0509C104.831 61.4056 104.888 61.38 105.731 61.3722C106.686 61.3634 107.111 61.5908 107.505 62.3214C107.972 63.1867 107.708 64.0401 106.591 65.2817C106.366 65.5315 105.914 66.5291 105.914 66.7753C105.914 66.8937 105.846 66.9906 105.763 66.9906C105.681 66.9906 105.613 67.3328 105.613 67.751C105.613 69.0321 104.909 70.3677 104.234 70.3677C104.082 70.3677 103.958 70.4338 103.958 70.5145C103.958 70.7669 103.307 70.6708 102.679 70.3258ZM67.0236 63.3599C66.7753 63.3254 66.5079 63.2362 66.4293 63.1617C66.3507 63.0871 66.1307 63.0261 65.9404 63.0261C65.7501 63.0261 65.5943 62.9601 65.5943 62.8793C65.5943 62.7985 65.4589 62.7325 65.2934 62.7325C65.128 62.7325 64.9926 62.6664 64.9926 62.5856C64.9926 62.5049 64.9149 62.4388 64.82 62.4388C64.6383 62.4388 63.4215 61.524 63.0368 61.0981C62.2898 60.2714 62.2986 60.2863 61.326 58.2034C61.0738 57.6633 61.1376 54.845 61.4197 54.0594C61.9206 52.6649 63.0374 51.1927 64.1651 50.4404C64.981 49.8962 65.7492 49.5176 66.0377 49.5176C66.1938 49.5176 66.3497 49.4351 66.3842 49.3341C66.4303 49.1991 66.9968 49.1506 68.528 49.1506C70.0592 49.1506 70.6258 49.1991 70.6719 49.3341C70.7064 49.4351 70.8982 49.5176 71.0981 49.5176C71.2981 49.5176 71.4617 49.5837 71.4617 49.6645C71.4617 49.7452 71.5657 49.8113 71.6927 49.8113C72.4722 49.8113 74.693 51.8887 75.1064 53.0046C75.2037 53.2672 75.3374 53.4821 75.4035 53.4821C75.4697 53.4821 75.5238 53.6803 75.5238 53.9226C75.5238 54.1649 75.5915 54.3631 75.6742 54.3631C75.7668 54.3631 75.8247 55.0972 75.8247 56.2719C75.8247 57.4465 75.7668 58.1807 75.6742 58.1807C75.5915 58.1807 75.5238 58.3789 75.5238 58.6212C75.5238 58.8635 75.4697 59.0617 75.4035 59.0617C75.3374 59.0617 75.2009 59.2841 75.1002 59.5558C74.9995 59.8276 74.7807 60.2076 74.614 60.4001C74.4473 60.5927 74.1268 60.9635 73.9018 61.2243C73.6768 61.485 73.439 61.6997 73.3733 61.7015C73.3077 61.703 73.0714 61.8698 72.8483 62.0717C72.6252 62.2736 72.3574 62.4388 72.2531 62.4388C72.1488 62.4388 72.0635 62.5048 72.0635 62.5856C72.0635 62.6664 71.9281 62.7325 71.7626 62.7325C71.5971 62.7325 71.4617 62.791 71.4617 62.8626C71.4617 62.9342 71.2756 63.0293 71.048 63.0738C70.8204 63.1184 70.3296 63.2221 69.9573 63.3043C69.2838 63.4531 67.8846 63.4796 67.0236 63.3599ZM70.4592 58.9314C70.8451 58.6723 71.1608 58.4098 71.1608 58.3481C71.1608 58.2865 71.3075 58.0824 71.4868 57.8946C71.7714 57.5965 71.8128 57.3843 71.8128 56.2232C71.8128 55.3405 71.7538 54.8741 71.6372 54.8362C71.5407 54.8048 71.4617 54.7052 71.4617 54.6148C71.4617 54.3833 70.5406 53.4821 70.3039 53.4821C70.196 53.4821 70.1077 53.4285 70.1077 53.363C70.1077 53.1478 68.6106 52.8608 68.0327 52.9652C66.9133 53.1674 65.6041 54.0568 65.5967 54.62C65.5952 54.721 65.5266 54.8036 65.4439 54.8036C65.3612 54.8036 65.2934 54.9649 65.2934 55.162C65.2934 55.3591 65.2257 55.5612 65.143 55.6111C65.0603 55.661 64.9926 55.9584 64.9926 56.2719C64.9926 56.5854 65.0603 56.8827 65.143 56.9326C65.2257 56.9825 65.2934 57.1847 65.2934 57.3818C65.2934 57.5789 65.3458 57.7402 65.4097 57.7402C65.4736 57.7402 65.6511 57.967 65.804 58.2442C65.9856 58.5733 66.35 58.8816 66.8538 59.1327C67.5211 59.4652 67.7694 59.5094 68.6915 59.4598C69.5914 59.4115 69.8669 59.3291 70.4592 58.9314ZM10.3808 50.5458C9.85442 50.0321 9.77897 49.8745 9.77897 49.2881C9.77897 48.9194 9.85039 48.4875 9.93766 48.3283C10.0249 48.1692 12.969 45.2364 16.48 41.811C23.2573 35.1991 23.2008 35.2445 24.3423 35.4892C24.587 35.5417 24.9985 35.7687 25.2567 35.9937C25.6837 36.3657 25.7258 36.4814 25.7214 37.2707C25.7184 37.8005 25.6299 38.253 25.4938 38.4323C25.2579 38.7432 14.1577 49.6301 13.2995 50.3923C13.0225 50.6382 12.7264 50.8395 12.6415 50.8395C12.5565 50.8395 12.487 50.9056 12.487 50.9863C12.487 51.0671 12.1485 51.1331 11.7348 51.1331C11.0578 51.1331 10.9224 51.0744 10.3808 50.5458ZM124.569 50.9863C124.569 50.9056 124.473 50.8395 124.355 50.8395C124.238 50.8395 121.294 48.058 117.813 44.6583C112.616 39.5827 111.457 38.3781 111.331 37.9239C110.913 36.4067 112.145 35.0986 113.644 35.4699C114.14 35.5929 115.197 36.5604 120.603 41.8439C124.108 45.2699 126.976 48.1668 126.976 48.2816C126.976 48.3963 127.044 48.4902 127.127 48.4902C127.209 48.4902 127.277 48.7875 127.277 49.1509C127.277 49.5143 127.209 49.8117 127.127 49.8117C127.044 49.8117 126.976 49.9108 126.976 50.0319C126.976 50.2739 126.603 50.6645 126.1 50.9496C125.715 51.1683 124.569 51.1957 124.569 50.9863ZM1.57968 28.2275C1.52854 28.1467 1.36709 28.0807 1.22091 28.0807C0.92665 28.0807 0.300892 27.5 0.300892 27.2269C0.300892 27.1312 0.233164 27.0528 0.150442 27.0528C0.067698 27.0528 0 26.7555 0 26.3921C0 26.0287 0.0677282 25.7314 0.150442 25.7314C0.233186 25.7314 0.300892 25.6322 0.300892 25.5111C0.300892 25.2691 0.673621 24.8786 1.17661 24.5934C1.42594 24.4521 3.59883 24.4099 10.6278 24.4099H19.7552L20.2743 24.7963C21.0069 25.3416 21.2676 26.0116 21.0546 26.8012C20.8804 27.4468 20.333 28.0807 19.9495 28.0807C19.8267 28.0807 19.6843 28.1467 19.6332 28.2275C19.5729 28.3227 16.4 28.3743 10.6064 28.3743C4.81286 28.3743 1.63998 28.3227 1.57968 28.2275ZM117.197 28.1773C116.485 27.8495 116.144 27.5689 116.144 27.3112C116.144 27.1691 116.076 27.0528 115.994 27.0528C115.911 27.0528 115.843 26.7876 115.843 26.4635C115.843 25.6377 116.254 24.9808 117.011 24.5976C117.3 24.4512 119.393 24.4099 126.508 24.4099H135.634L136.166 24.8384C136.88 25.4125 137.176 26.2668 136.894 26.9351C136.651 27.5128 136.105 28.0806 135.793 28.0806C135.67 28.0806 135.528 28.1467 135.476 28.2275C135.335 28.4512 117.687 28.4028 117.197 28.1773ZM23.109 17.1178C22.7866 17.0282 10.4446 5.02636 10.0402 4.40929C9.74037 3.95176 9.69866 3.10117 9.95306 2.63249C10.2087 2.16148 10.8162 1.69085 11.2871 1.59892C12.3582 1.38985 12.5013 1.50659 19.0859 7.96205C22.5312 11.3397 25.4347 14.206 25.5382 14.3315C25.6416 14.4571 25.7262 14.9141 25.7262 15.3471C25.7262 16.0063 25.656 16.2112 25.2949 16.606C24.945 16.9885 24.7247 17.0888 24.1289 17.1373C23.7249 17.1702 23.2659 17.1614 23.109 17.1178ZM112.399 17.1109C111.941 16.9339 111.469 16.3982 111.334 15.9022C111.001 14.6845 110.928 14.7727 117.903 7.981C123.691 2.34541 124.414 1.69028 124.933 1.60806C125.818 1.46779 126.976 2.02698 126.976 2.59498C126.976 2.72188 127.044 2.82571 127.127 2.82571C127.377 2.82571 127.295 3.98306 127.015 4.40931C126.573 5.08142 114.356 16.9224 113.949 17.0735C113.541 17.2249 112.743 17.2441 112.399 17.1109Z" fill="#FF7E70"/>
</svg>
