<svg width="142" height="160" viewBox="0 0 142 160" fill="none" xmlns="http://www.w3.org/2000/svg">
<path d="M63.7854 159.927L33.768 159.776L33.0388 158.932L32.3096 158.088V139.193V120.299L29.3634 118.345C19.2108 111.61 11.8699 103.327 6.62164 92.6841C-7.13635 64.7845 1.0975 31.0364 26.1885 12.4854C34.1313 6.61289 43.2488 2.65277 53.3183 0.701832C56.5374 0.0781233 57.8046 0.000622138 64.7937 3.46437e-06C71.7337 -0.00061066 73.0733 0.0798628 76.2764 0.689833C96.4055 4.52302 113.005 16.6614 122.444 34.4504C126.419 41.942 129.114 51.5777 129.512 59.7157L129.696 63.4875L135.848 78.818C139.232 87.2499 142 94.4539 142 94.8269C142 95.8296 141.398 96.9671 140.588 97.4957C140.1 97.8139 138.222 98.1033 134.667 98.4078C131.803 98.6531 128.119 98.9869 126.481 99.1495C124.843 99.3122 123.267 99.4452 122.978 99.4452C122.391 99.4452 122.309 100.194 121.155 115.995C119.976 132.142 119.944 132.34 118.376 133.175C117.886 133.436 115.032 133.47 107.297 133.305L96.8765 133.084L97.08 145.311C97.2569 155.934 97.2233 157.654 96.8243 158.422C96.3276 159.379 95.7404 159.777 94.5582 159.96C94.1427 160.024 80.2949 160.009 63.7854 159.927ZM90.6988 141.113C90.6443 132.798 90.7231 128.42 90.9344 128.026C91.1092 127.701 91.6596 127.226 92.1577 126.969C92.9613 126.555 94.223 126.54 103.362 126.833C109.026 127.015 113.712 127.113 113.774 127.051C113.836 126.989 114.168 123.224 114.513 118.684C114.858 114.143 115.394 107.088 115.704 103.005C116.014 98.9221 116.409 95.3192 116.581 94.9984C117.276 93.7057 118.247 93.4318 123.791 92.9657C132.795 92.2086 133.376 92.1496 133.749 91.9548C134 91.8241 132.484 87.7173 128.792 78.5297L123.472 65.2929L123.249 61.5253C122.958 56.6279 122.52 53.7295 121.437 49.5447C118.531 38.3081 112.089 28.0152 103.208 20.4171C93.8163 12.3815 83.1728 7.74442 71.1394 6.44559C66.1811 5.91042 58.1788 6.25779 53.5612 7.20864C42.2531 9.53715 32.5633 14.5534 24.4923 22.257C6.52421 39.4074 1.39936 65.6881 11.6111 88.3133C14.8744 95.5437 19.8915 102.367 25.8128 107.628C28.3792 109.908 32.9766 113.196 36.8809 115.544C37.4319 115.875 38.0545 116.485 38.2645 116.898C38.5594 117.479 38.6474 121.745 38.6509 135.629L38.6553 153.608L64.7181 153.608L90.7809 153.608L90.6988 141.113ZM34.842 93.76C34.3236 93.4426 33.7457 92.7438 33.5578 92.207C33.336 91.5736 33.2161 88.353 33.2161 83.0294V74.8277L31.7111 73.7511C29.1917 71.9487 25.8132 68.5618 24.1618 66.1832C16.7753 55.5434 16.2525 42.1482 22.7961 31.1941C32.1735 15.496 52.9796 10.8648 68.3809 21.0474C72.3734 23.6871 76.8242 28.6467 78.924 32.796C80.962 36.8232 82.471 42.114 82.471 45.2321C82.471 46.38 83.0911 48.2382 85.3417 53.835C88.6009 61.94 88.7765 62.8718 87.3027 64.2427C86.4968 64.9923 86.0915 65.1109 83.7521 65.2817C82.2996 65.3876 80.6353 65.5737 80.0536 65.6952L78.996 65.9161L78.5 72.7096C78.2272 76.4461 77.8485 79.7926 77.6584 80.1463C76.8705 81.6122 76.0369 81.8296 71.5645 81.7359L67.4008 81.6487L67.3059 87.0805L67.211 92.5124L66.3733 93.3459L65.5357 94.1795L50.6601 94.2583C36.4506 94.3335 35.7424 94.3111 34.842 93.76ZM60.7143 82.8807C60.7143 75.2253 60.9486 74.9732 67.778 75.2806C71.6547 75.4551 71.8948 75.4333 71.8948 74.9071C71.8948 73.0911 72.8552 62.7049 73.1076 61.7905C73.528 60.2678 74.4795 59.7618 77.4945 59.4575C78.9177 59.3138 80.1581 59.1207 80.2509 59.0282C80.3438 58.9357 79.4535 56.4145 78.2725 53.4255C76.6637 49.3536 76.1253 47.6275 76.1253 46.5417C76.1253 45.7447 75.9824 44.2891 75.8078 43.3071C73.6009 30.897 62.9031 21.982 50.2891 22.0412C38.9375 22.0944 29.0582 29.4726 25.6152 40.4685C24.9932 42.4549 24.9093 43.32 24.9142 47.6901C24.9195 52.4742 24.955 52.7591 25.8879 55.5136C26.4204 57.0858 27.4857 59.4405 28.2552 60.7463C29.9514 63.6245 33.4851 67.2684 36.389 69.1337C39.9619 71.4288 39.6994 70.5993 39.8023 79.9177L39.8918 88.011H50.303H60.7143V82.8807Z" fill="#FF7E70"/>
</svg>
