<svg width="141" height="160" viewBox="0 0 141 160" fill="none" xmlns="http://www.w3.org/2000/svg">
<path d="M5.40132 157.828C0.71383 154.023 0 150.839 0 133.734C0 119.831 0.885604 111.967 5.55725 84.3857C8.61374 66.3403 11.6724 47.114 12.3542 41.6606C14.6835 23.0315 25.2176 8.34164 40.3036 2.6855C49.8538 -0.895167 68.883 -0.895167 78.4332 2.6855C93.5181 8.34122 104.052 23.0299 106.384 41.6606C107.067 47.114 108.638 56.8737 109.876 63.3489L112.127 75.1219L117.717 75.923C131.793 77.9407 141 88.6528 141 103.012C141 112 138.471 116.928 128.646 127.082C119.995 136.022 119.974 136.061 119.974 143.018C119.974 146.854 119.309 151.455 118.496 153.243C115.459 159.922 114.535 160.027 59.1206 159.997C12.5898 159.974 7.80448 159.779 5.40132 157.828ZM26.1663 150.018C25.9204 146.067 26.3958 143.865 27.7343 142.752C30.099 140.785 30.6855 142.034 31.1907 150.11L31.5394 155.687L60.9144 155.935L90.2894 156.183L90.3081 150.977C90.3174 148.114 90.6605 144.517 91.0707 142.983C91.753 140.432 91.3962 140.195 86.8764 140.195C80.7056 140.195 78.6064 137.894 79.5365 132.151C79.9198 129.783 79.7136 127.524 79.0783 127.13C76.3389 125.434 78.1548 119.867 83.4887 113.611C86.5499 110.021 89.0545 106.725 89.0545 106.287C89.0545 104.603 85.4417 105.642 77.8113 109.519C70.7106 113.127 68.7838 113.547 59.3442 113.547C49.9983 113.547 47.8978 113.1 40.7916 109.598L32.7782 105.649L21.2716 109.069C4.43438 114.074 4.94923 113.294 4.94923 133.793C4.94923 148.601 5.24697 151.225 7.11367 152.855C10.3806 155.706 12.3644 156.189 19.7548 155.927L26.5208 155.687L26.1663 150.018ZM112.533 153.225C114.19 151.723 115.026 149.403 115.026 146.307C115.026 141.671 115.008 141.655 111.403 143.019C108.716 144.036 106.959 144.015 104.605 142.941C102.456 141.959 100.431 141.872 98.3338 142.671C95.6829 143.681 95.2368 144.629 95.2368 149.253C95.2368 152.224 95.6543 155.08 96.1645 155.6C97.8649 157.334 109.934 155.581 112.533 153.225ZM118.757 118.517C121.148 119.998 119.867 122.264 112.327 129.888C105.916 136.37 105.034 137.756 106.871 138.462C108.53 139.1 111.914 136.475 120.791 127.665C127.241 121.263 133.313 114.519 134.285 112.679C135.257 110.838 136.053 106.452 136.053 102.932C136.053 91.6856 129.104 83.2134 117.734 80.5964C112.758 79.451 97.2237 82.9811 91.6927 86.5144C89.0856 88.1798 88.9699 88.587 90.6311 90.2517C92.1867 91.8105 93.5519 91.8929 98.8744 90.749C107.446 88.9068 111.316 89.0095 111.316 91.0792C111.316 92.0149 107.888 95.9828 103.698 99.897C89.903 112.786 82.5355 121.425 83.4044 123.694C84.0444 125.365 86.2849 123.713 94.5391 115.485C104.093 105.961 107.605 104.098 107.605 108.553C107.605 109.475 102.029 115.501 95.2143 121.943C84.5442 132.029 83.0856 133.874 84.7115 135.226C86.315 136.56 88.4269 134.998 98.7221 124.862C105.389 118.298 111.507 112.927 112.317 112.927C115.603 112.927 112.053 116.377 102.5 126C89 140.5 92.5688 142.941 107 129C113.071 123.136 118.088 118.102 118.757 118.517ZM72.3088 106.641C76.0758 105.229 79.1579 103.783 79.1579 103.428C79.1579 103.073 78.0379 101.356 76.6691 99.6124C75.3002 97.8685 73.8464 94.3493 73.4383 91.7918L72.6962 87.1419L68.5457 88.8797C63.7534 90.8862 54.7555 91.1548 50.2196 89.4267C47.3074 88.3171 47.038 88.5348 46.2743 92.6138C45.8237 95.0217 44.0864 98.6213 42.414 100.613L39.3734 104.234L42.8774 105.622C53.8658 109.975 62.6079 110.278 72.3088 106.641ZM21.1194 104.191C36.915 99.5632 38.9395 98.5872 40.6792 94.761C42.9886 89.6819 42.3209 85.1001 38.7974 81.8478C32.1972 75.7556 30.9779 70.7532 30.9482 49.6438C30.9155 26.4261 31.303 25.4836 40.7185 25.8941C44.2039 26.0459 50.4786 27.5642 54.6621 29.2677C64.269 33.1795 64.9499 33.152 70.0705 28.6467C74.7388 24.5394 76.2692 24.2274 81.0477 26.4091C86.4581 28.8794 87.8158 33.2816 87.8158 48.3548C87.8158 65.1161 86.2458 72.8831 81.5425 79.3892C75.1191 88.2749 77.6014 98.1148 86.8964 100.613C89.783 101.389 92.477 102.226 92.8831 102.473C93.2893 102.721 95.2372 101.224 97.212 99.146L100.803 95.3685L96.159 96.2305C89.5894 97.4501 85.3421 94.5162 85.3421 88.7584C85.3421 83.6125 87.6896 81.8104 98.329 78.7883C102.411 77.6289 106.096 76.4814 106.518 76.2382C106.941 75.9951 106.226 70.0676 104.931 63.0662C103.635 56.0648 102.094 46.6058 101.505 42.0462C99.4321 25.9884 91.1333 13.935 77.9211 7.79178C72.1618 5.11398 69.3161 4.62318 59.3684 4.59226C49.2853 4.55947 46.6382 5.01106 40.7089 7.7639C27.501 13.8964 19.5432 25.2895 17.2807 41.3057C15.7591 52.077 7.67652 101.204 6.77164 105.181C6.42291 106.714 6.60705 107.969 7.18157 107.969C7.7559 107.969 14.0279 106.269 21.1194 104.191ZM68.3945 83.9854C73.6808 81.772 79.9428 74.4773 81.5572 68.6517C83.6705 61.026 83.2425 35.9305 80.943 32.6407C78.3487 28.929 75.9685 29.1731 71.5465 33.6043C66.9746 38.1858 63.1537 38.3421 54.2613 34.3116C50.6077 32.6557 45.1138 31.1219 42.0527 30.9033L36.4868 30.5056L36.1437 48.9451C35.831 65.7426 36.0395 67.8797 38.4864 72.9445C43.6548 83.643 57.2367 88.6571 68.3945 83.9854Z" fill="#FF7E70"/>
</svg>
