<svg width="18" height="17" viewBox="0 0 18 17" fill="none" xmlns="http://www.w3.org/2000/svg">
<path d="M6.94555 3.53383C7.58763 1.93314 7.90866 1.1328 8.43024 1.02187C8.56739 0.992708 8.70913 0.992708 8.84628 1.02187C9.36785 1.1328 9.68889 1.93314 10.331 3.53383C10.6961 4.44411 10.8787 4.89925 11.2203 5.20882C11.3161 5.29565 11.4201 5.37298 11.5309 5.43973C11.9257 5.6777 12.4186 5.72185 13.4044 5.81013C15.0731 5.95958 15.9075 6.03431 16.1623 6.51005C16.2151 6.60858 16.251 6.71526 16.2685 6.82566C16.3529 7.35868 15.7395 7.91674 14.5128 9.03286L14.1721 9.3428C13.5985 9.86461 13.3118 10.1255 13.1459 10.4511C13.0464 10.6464 12.9797 10.8568 12.9484 11.0737C12.8963 11.4354 12.9803 11.8139 13.1482 12.5709L13.2082 12.8414C13.5094 14.1989 13.66 14.8777 13.472 15.2113C13.3032 15.511 12.9921 15.7029 12.6485 15.7193C12.266 15.7375 11.727 15.2983 10.649 14.4199C9.93883 13.8412 9.58373 13.5519 9.18952 13.4388C8.82927 13.3355 8.44725 13.3355 8.087 13.4388C7.69279 13.5519 7.33768 13.8412 6.62747 14.4199C5.5495 15.2983 5.01051 15.7375 4.62799 15.7193C4.28439 15.7029 3.97335 15.511 3.80448 15.2113C3.61649 14.8777 3.76708 14.1989 4.06828 12.8414L4.12829 12.5709C4.29624 11.8139 4.38022 11.4354 4.3281 11.0737C4.29684 10.8568 4.23013 10.6464 4.13063 10.4511C3.96475 10.1255 3.67798 9.86461 3.10444 9.3428L2.76376 9.03286C1.53697 7.91674 0.92358 7.35868 1.00805 6.82566C1.02555 6.71526 1.06143 6.60858 1.1142 6.51005C1.369 6.03431 2.20338 5.95958 3.87214 5.81013C4.85793 5.72185 5.35082 5.6777 5.74566 5.43973C5.85641 5.37298 5.96042 5.29565 6.05624 5.20882C6.39785 4.89925 6.58042 4.44411 6.94555 3.53383Z" fill="url(#paint0_linear_2459_4)" stroke="url(#paint1_linear_2459_4)" stroke-width="2"/>
<defs>
<linearGradient id="paint0_linear_2459_4" x1="8.63826" y1="1" x2="8.63826" y2="15.7198" gradientUnits="userSpaceOnUse">
<stop stop-color="#B4A717"/>
<stop offset="1" stop-color="#CE9F1F"/>
</linearGradient>
<linearGradient id="paint1_linear_2459_4" x1="8.63826" y1="1" x2="8.63826" y2="15.7198" gradientUnits="userSpaceOnUse">
<stop stop-color="#B4A717"/>
<stop offset="1" stop-color="#CE9F1F"/>
</linearGradient>
</defs>
</svg>
