<svg width="50" height="51" viewBox="0 0 50 51" fill="none" xmlns="http://www.w3.org/2000/svg">
<path d="M21.6016 50.825C21.0619 50.635 20.4728 50.1158 20.2133 49.6014C20.1225 49.4215 19.8354 48.2554 19.5751 47.01C19.0132 44.3214 18.5676 42.8687 17.8356 41.3395C16.0294 37.566 13.1249 34.6055 9.43029 32.772C7.92497 32.0249 6.53772 31.5802 3.94231 31.0128C2.73566 30.749 1.58039 30.4572 1.37502 30.3642C0.941255 30.168 0.359081 29.5457 0.152078 29.0571C0.0702914 28.864 0.00477478 28.4342 0.000533126 28.0629C-0.00560064 27.5252 0.0389604 27.3135 0.251033 26.8734C0.748311 25.8414 1.03506 25.7089 4.34828 24.9808C6.6827 24.4678 7.82696 24.0952 9.3553 23.3501C13.0052 21.5708 15.9682 18.5971 17.7407 14.9342C18.6307 13.0952 18.973 11.9964 19.6179 8.90722C20.1727 6.24998 20.3367 5.91392 21.3241 5.41108C22.275 4.92682 23.3538 5.05461 24.1455 5.74529C24.7739 6.29348 24.7936 6.35141 25.5334 9.82716C25.7395 10.7957 26.0733 12.0782 26.2751 12.6771C27.6644 16.8008 30.452 20.3183 34.1009 22.5517C35.9202 23.6652 37.7002 24.3417 40.3554 24.9286C43.76 25.6812 43.8178 25.7016 44.3556 26.3419C45.4465 27.6407 45.0484 29.6044 43.5365 30.3829C43.3804 30.4632 42.282 30.7421 41.0957 31.0026C38.0046 31.6813 37.07 31.9871 35.2548 32.914C31.6836 34.7376 28.8151 37.721 27.0812 41.415C26.3839 42.9005 25.9876 44.1283 25.5701 46.0973C24.8043 49.7077 24.7206 49.9449 24.0335 50.4522C23.6135 50.7623 22.8989 51.0044 22.4173 50.9999C22.2373 50.9982 21.8703 50.9195 21.6016 50.825ZM41.8032 15.0407C41.3249 14.7397 41.2033 14.5145 40.8801 13.3318C40.4581 11.7873 40.136 11.1412 39.4858 10.5345C38.8485 9.93985 38.355 9.70063 36.8834 9.27306C35.7324 8.93862 35.4413 8.76783 35.1928 8.28112C35.0051 7.91345 35.0304 7.18914 35.2434 6.83321C35.5048 6.39629 35.7537 6.26591 36.9956 5.91534C38.4053 5.51741 38.9309 5.25495 39.5251 4.65242C40.1506 4.01805 40.4956 3.3318 40.8411 2.03521C41.2638 0.448604 41.5359 0.0891255 42.3761 0.0068444C42.9037 -0.044817 43.4692 0.200506 43.7193 0.589531C43.8053 0.723213 44.0316 1.39529 44.2223 2.08304C44.8932 4.50281 45.6202 5.23627 48.0092 5.90361C49.3282 6.27206 49.5828 6.4125 49.8312 6.90876C50.1718 7.58914 49.9821 8.4233 49.3962 8.822C49.2354 8.93137 48.6165 9.15687 48.0208 9.32313C46.7096 9.68911 46.0499 10.0313 45.428 10.6682C44.8367 11.2737 44.5792 11.8094 44.1888 13.2461C43.8448 14.5117 43.7168 14.7654 43.2881 15.0318C42.9039 15.2705 42.1752 15.2749 41.8032 15.0407Z" fill="#FF7E70"/>
</svg>
