<svg width="181" height="165" viewBox="0 0 181 165" fill="none" xmlns="http://www.w3.org/2000/svg">
<path d="M8.25455 164.681C6.3694 164.175 5.17957 163.622 3.83034 162.746C3.12033 162.286 2.40341 161.754 1.95544 161.038C0.733465 159.087 -0.0891798 156.969 0.00773909 154.42C0.00773909 152.897 -0.0575501 152.659 0.195775 151.317C0.482551 149.798 1.61354 147.718 2.93357 146.283C4.41997 144.667 7.06786 143.268 9.3315 142.902C10.1679 142.767 15.6112 142.656 21.4278 142.655L32.0034 142.653L31.0035 141.116C29.9235 139.455 29.1043 137.493 28.6904 135.575C28.5263 134.814 27.6747 128.225 27.7971 124.535C27.9909 118.693 28.4647 112.718 30.3665 107.188C32.6936 100.421 35.8887 94.1174 40.9513 88.4897C43.2396 85.946 46.6891 82.8787 48.1131 82.1215C50.2827 80.9678 52.6956 83.1165 52.0083 85.5903C51.8374 86.2052 51.3109 86.8188 50.1913 87.7078C48.2145 89.2774 44.3862 93.1857 42.8752 95.1768C39.1221 100.122 36.6802 106.245 35.0256 112.297C33.6023 117.502 33.0627 123.006 33.3501 128.393C33.4749 130.732 33.7436 133.181 34.8173 135.266C36.1211 137.798 37.6722 140.153 40.5873 141.584C42.5008 142.524 42.519 142.527 45.6879 142.52C48.482 142.515 49.094 142.432 50.7271 141.845C54.2123 140.593 57.0068 138.524 59.044 135.687C61.2428 132.625 61.3455 132.219 65.4709 110.325C67.5627 99.2229 69.5758 88.5443 69.9444 86.5945C70.3182 84.617 70.5415 82.7601 70.4494 82.3952C69.9954 80.5978 67.8649 79.3609 66.1765 79.9147C64.3076 80.5276 64.2654 80.6281 60.1827 94.1694C58.0944 101.096 55.7983 108.746 55.0802 111.17C54.3622 113.594 53.5046 116.428 53.1744 117.467C52.8443 118.506 51.9839 121.339 51.2625 123.763C50.5411 126.188 49.7894 128.573 49.5922 129.065C48.8795 130.843 46.6042 131.389 45.1861 130.123C44.5608 129.565 44.017 128.356 42.3804 123.889C41.2638 120.842 40.3305 117.943 40.3062 117.447C40.2224 115.734 41.8926 114.245 43.5511 114.555C44.8169 114.791 45.5568 115.525 46.0852 117.07C46.3494 117.842 46.6285 118.474 46.7055 118.474C46.7825 118.474 47.3196 116.859 47.8992 114.885C48.4788 112.911 49.4336 109.709 50.0209 107.77C50.6082 105.831 51.4613 102.997 51.9167 101.473C52.3721 99.9496 53.8565 95.0194 55.2154 90.5173C56.5743 86.0153 57.8016 81.9272 57.9427 81.4327C58.1848 80.5839 58.1367 80.4572 57.0819 79.1659C54.7208 76.2757 53.0328 72.9682 51.9828 69.1751C51.5246 67.5198 51.4407 66.5247 51.4355 62.6864C51.4302 58.8142 51.6026 57.4667 52.1598 55.8446C55.461 46.2332 60.7901 41.104 68.2935 38.0664C71.6592 36.7039 80.5323 35.0265 89.1653 39.2476C100.491 44.7853 106.133 57.0211 103.05 69.3593C102.229 72.6427 100.129 76.6967 97.7561 79.576L96.9138 80.5981L102.478 99.0954C105.539 109.269 108.135 117.808 108.249 118.071C108.42 118.468 108.534 118.339 108.918 117.316C109.826 114.891 111.413 113.977 113.229 114.833C114.205 115.293 114.89 116.299 114.89 117.273C114.89 117.832 111.145 128.51 110.582 129.555C109.854 130.906 107.481 131.22 106.286 130.123C105.612 129.505 105.174 128.24 102.21 118.348C100.384 112.253 98.0288 104.433 96.9766 100.97C95.9244 97.5066 94.9512 94.2764 94.814 93.7916C93.7413 90.0027 91.2227 81.9947 90.9221 81.4169C90.1938 80.0175 88.2449 79.4555 86.6109 80.1738C85.6972 80.5755 85.3707 80.8997 84.9673 81.806L84.4639 82.9369L86.0057 91.0718C86.8537 95.5459 88.0054 101.643 88.5651 104.622C89.6096 110.181 90.833 116.681 92.4412 125.217C93.3574 130.08 94.1063 132.554 95.2481 134.491C96.8014 137.125 99.3863 139.461 102.344 140.905C105.215 142.306 107.124 142.728 110.064 142.611C112.211 142.525 112.707 142.411 114.402 141.611C117.572 140.115 120.217 137.486 121.622 134.394C123.227 130.859 122.712 126.649 122.388 122.783C121.926 117.28 120.459 112.078 118.56 106.66C116.057 99.5176 113.581 93.5198 107.903 88.1076C105.525 85.8404 104.941 85.1422 104.801 84.3989C104.576 83.2082 105.257 81.9933 106.486 81.391C107.873 80.7117 108.91 80.8309 111.089 83.0843C117.615 89.8355 122.538 98.678 125.014 107.949C126.528 113.615 127.439 119.231 127.515 124.961C127.568 128.975 127.306 133.095 126.078 136.919C125.58 138.469 124.578 139.815 123.727 141.205C123.422 141.703 122.742 142.653 122.742 142.653L133.706 142.658C145.674 142.663 146.988 142.781 149.374 144.072C151.314 145.121 153.103 147.044 154.134 149.187C154.903 150.785 155.051 151.384 155.141 153.262C155.385 158.343 152.722 162.423 147.897 164.36C147.897 164.36 146.966 164.941 146.443 164.943C127.147 165.031 78.0139 164.991 78.0139 164.991C19.6518 164.991 9.38922 164.986 8.25455 164.681ZM146.008 158.885C148.026 158.047 149.357 156.102 149.357 153.989C149.357 151.767 148.396 150.159 146.443 149.115L145.429 148.572H77.507H9.58494L8.38784 149.272C7.07412 150.039 5.97851 151.61 5.74054 153.067C5.38449 155.248 6.70576 157.735 8.75555 158.744L9.83838 159.276L77.4518 159.276C138.006 159.277 145.164 159.236 146.008 158.885ZM93.5605 141.709C90.8211 138.844 88.8109 135.298 87.8971 131.719C87.566 130.421 86.9525 127.506 86.5337 125.24C86.1149 122.973 85.0308 117.209 84.1246 112.43C83.2184 107.651 82.193 102.211 81.8459 100.34C81.4988 98.4704 80.6821 94.1635 80.0309 90.7696C79.366 87.3044 78.8489 83.8812 78.8514 82.9619C78.8695 76.3465 86.1519 72.0161 92.2004 75.0238L93.4738 75.657L94.0466 74.9648C95.0943 73.6986 96.8567 69.9984 97.4401 67.8399C98.2454 64.8607 98.2488 60.5251 97.4478 57.5648C96.9076 55.5673 92.6938 41.9857 77.9137 41.6789C74.4064 41.6061 70.5889 42.0229 67.6279 43.8923C55.6151 51.4764 55.8678 62.6732 58.0148 68.9873C58.6941 70.9851 60.2111 73.9089 61.2479 75.2187C61.5791 75.637 61.6739 75.6266 62.9897 75.028C64.9594 74.1319 66.8364 73.8313 68.5025 74.1453C71.6443 74.7375 74.0598 76.5536 75.3821 79.3181C76.5202 81.6973 76.541 83.0924 75.5187 88.5029C75.0344 91.0656 73.0237 101.709 71.0503 112.155C69.0769 122.6 67.1869 132.008 66.8503 133.059C66.0089 135.688 64.1419 138.858 62.2174 140.923L60.6054 142.654H77.5343H94.4633L93.5605 141.709ZM112.548 72.9968C111.778 72.5814 111.088 71.446 111.088 70.5942C111.088 70.289 111.659 68.9274 112.358 67.5686C114.03 64.3159 114.471 62.5812 114.465 59.2867C114.458 55.8678 114.014 54.1164 112.102 49.9686C109.427 44.1651 108.378 39.2632 108.625 33.7225C109.201 20.7861 116.706 9.43329 128.449 3.7331C134.011 1.03289 138.534 0 144.796 0C151.057 0 155.58 1.03289 161.142 3.7331C172.899 9.44005 180.389 20.7708 180.966 33.7225C181.219 39.3859 180.059 44.6463 177.356 50.0937C172.527 59.8257 163.844 66.5138 152.618 69.1487C150.121 69.7348 147.095 69.8188 136.179 69.6052C131.246 69.5087 129.123 69.8275 120.222 72.0011C117.091 72.7656 114.24 73.3865 113.886 73.381C113.532 73.3753 112.93 73.2025 112.548 72.9968ZM127.435 64.4728C131.902 63.7177 135.72 63.5616 140.552 63.9365C145.355 64.3093 148.353 64.1752 151.568 63.4438C157.561 62.0804 162.569 59.325 166.77 55.0792C172.599 49.1872 175.531 41.6165 175.132 33.4856C174.565 21.9303 166.713 11.5838 155.44 7.53878C146.066 4.17533 135.59 5.46183 127.346 10.9887C123.131 13.8146 119.475 18.0503 117.289 22.6405C115.204 27.0187 114.398 30.4582 114.388 35.0118C114.379 39.0777 115.537 43.9672 117.362 47.575C118.559 49.9404 119.39 52.1811 119.872 54.3463C120.413 56.78 120.41 61.8986 119.866 64.1507C119.638 65.0943 119.451 65.9603 119.451 66.0751C119.451 66.1898 120.734 65.963 122.302 65.5711C123.871 65.1791 126.18 64.6849 127.435 64.4728ZM126.8 50.7863C125.292 49.4276 125.397 47.3521 127.029 46.2615C127.873 45.6972 128.024 45.6861 134.793 45.6861H141.695L141.848 45.1194C141.932 44.8077 142.002 41.1214 142.004 36.9276L142.008 29.3025L141.33 29.0462C140.957 28.9053 139.078 28.8098 137.155 28.834C133.369 28.8816 132.838 28.7366 131.968 27.4171C131.384 26.5314 131.637 24.8989 132.49 24.0503C133.135 23.4081 133.227 23.3938 137.514 23.2702L141.881 23.1443L141.941 18.9885C141.974 16.7028 142.003 14.5865 142.005 14.2854C142.009 13.5794 143.308 12.2888 144.181 12.1229C145.23 11.9236 146.496 12.385 147.06 13.1722C147.522 13.8169 147.579 14.3395 147.641 18.5155L147.71 23.1443L152.077 23.2702C156.364 23.3938 156.456 23.4081 157.102 24.0503C157.955 24.8989 158.208 26.5314 157.624 27.4171C156.748 28.7458 156.239 28.8803 152.271 28.8328C150.031 28.806 148.406 28.8954 148.091 29.0627C147.588 29.3302 147.578 29.519 147.644 37.4482L147.71 45.5601L154.852 45.6861C161.597 45.805 162.034 45.8413 162.709 46.3393C164.197 47.4371 164.235 49.4858 162.791 50.7863L162.022 51.4789H144.796H127.57L126.8 50.7863Z" fill="#FF7E70"/>
</svg>
